<svg width="28" height="28" viewBox="0 0 28 28" fill="none" xmlns="http://www.w3.org/2000/svg">
<g clip-path="url(#clip0_3171_22673)">
<path d="M14.0082 2.52159C17.751 2.52159 18.1943 2.538 19.6662 2.60363C21.0342 2.6638 21.7729 2.89353 22.2654 3.08498C22.9166 3.33659 23.3871 3.6429 23.8741 4.12971C24.3666 4.622 24.6676 5.08693 24.9193 5.73784C25.1108 6.23012 25.3406 6.97402 25.4008 8.336C25.4665 9.81285 25.4829 10.2559 25.4829 13.9918C25.4829 17.7332 25.4665 18.1762 25.4008 19.6476C25.3406 21.015 25.1108 21.7535 24.9193 22.2458C24.6676 22.8967 24.3611 23.3671 23.8741 23.8539C23.3817 24.3462 22.9166 24.647 22.2654 24.8986C21.7729 25.0901 21.0287 25.3198 19.6662 25.38C18.1888 25.4456 17.7456 25.462 14.0082 25.462C10.2654 25.462 9.82216 25.4456 8.35021 25.38C6.98222 25.3198 6.2435 25.0901 5.75103 24.8986C5.09986 24.647 4.62927 24.3407 4.14227 23.8539C3.64979 23.3616 3.34884 22.8967 3.09713 22.2458C2.90561 21.7535 2.67579 21.0096 2.61559 19.6476C2.54993 18.1707 2.53352 17.7277 2.53352 13.9918C2.53352 10.2504 2.54993 9.80738 2.61559 8.336C2.67579 6.96855 2.90561 6.23012 3.09713 5.73784C3.34884 5.08693 3.65527 4.61653 4.14227 4.12971C4.63475 3.63743 5.09986 3.33659 5.75103 3.08498C6.2435 2.89353 6.98769 2.6638 8.35021 2.60363C9.82216 2.538 10.2654 2.52159 14.0082 2.52159ZM14.0082 0C10.2052 0 9.72914 0.0164095 8.23529 0.0820473C6.74692 0.147685 5.72367 0.388357 4.83721 0.732956C3.91245 1.09396 3.12996 1.56984 2.35294 2.35202C1.57045 3.12874 1.09439 3.91092 0.733242 4.82985C0.388509 5.72143 0.147743 6.73882 0.0820793 8.22661C0.0164159 9.72534 0 10.2012 0 14.0027C0 17.8043 0.0164159 18.2801 0.0820793 19.7734C0.147743 21.2612 0.388509 22.284 0.733242 23.1702C1.09439 24.0946 1.57045 24.8767 2.35294 25.6534C3.12996 26.4302 3.91245 26.9115 4.83174 27.267C5.72367 27.6116 6.74145 27.8523 8.22982 27.918C9.72367 27.9836 10.1997 28 14.0027 28C17.8057 28 18.2818 27.9836 19.7756 27.918C21.264 27.8523 22.2873 27.6116 23.1737 27.267C24.093 26.9115 24.8755 26.4302 25.6525 25.6534C26.4295 24.8767 26.9111 24.0946 27.2668 23.1756C27.6115 22.284 27.8523 21.2667 27.9179 19.7789C27.9836 18.2856 28 17.8097 28 14.0082C28 10.2067 27.9836 9.73081 27.9179 8.23755C27.8523 6.74976 27.6115 5.7269 27.2668 4.84079C26.922 3.91092 26.446 3.12874 25.6635 2.35202C24.8865 1.57531 24.104 1.09396 23.1847 0.738425C22.2927 0.393827 21.275 0.153155 19.7866 0.0875171C18.2873 0.0164095 17.8112 0 14.0082 0Z" fill="url(#paint0_linear_3171_22673)"/>
<path d="M14.0081 6.80859C10.0355 6.80859 6.8125 10.0303 6.8125 14.0014C6.8125 17.9725 10.0355 21.1942 14.0081 21.1942C17.9808 21.1942 21.2037 17.9725 21.2037 14.0014C21.2037 10.0303 17.9808 6.80859 14.0081 6.80859ZM14.0081 18.6672C11.4308 18.6672 9.34054 16.5777 9.34054 14.0014C9.34054 11.4251 11.4308 9.33565 14.0081 9.33565C16.5854 9.33565 18.6757 11.4251 18.6757 14.0014C18.6757 16.5777 16.5854 18.6672 14.0081 18.6672Z" fill="url(#paint1_linear_3171_22673)"/>
<path d="M23.1679 6.52689C23.1679 7.45676 22.4128 8.20613 21.488 8.20613C20.5578 8.20613 19.8081 7.45129 19.8081 6.52689C19.8081 5.59702 20.5632 4.84766 21.488 4.84766C22.4128 4.84766 23.1679 5.60249 23.1679 6.52689Z" fill="url(#paint2_linear_3171_22673)"/>
</g>
<defs>
<linearGradient id="paint0_linear_3171_22673" x1="0" y1="14" x2="28" y2="14" gradientUnits="userSpaceOnUse">
<stop stop-color="#DA7B4A"/>
<stop offset="1" stop-color="#C16C3F"/>
</linearGradient>
<linearGradient id="paint1_linear_3171_22673" x1="6.8125" y1="14.0014" x2="21.2037" y2="14.0014" gradientUnits="userSpaceOnUse">
<stop stop-color="#DA7B4A"/>
<stop offset="1" stop-color="#C16C3F"/>
</linearGradient>
<linearGradient id="paint2_linear_3171_22673" x1="19.8081" y1="6.52689" x2="23.1679" y2="6.52689" gradientUnits="userSpaceOnUse">
<stop stop-color="#DA7B4A"/>
<stop offset="1" stop-color="#C16C3F"/>
</linearGradient>
<clipPath id="clip0_3171_22673">
<rect width="28" height="28" fill="white"/>
</clipPath>
</defs>
</svg>
