<svg width="28" height="28" viewBox="0 0 28 28" fill="none" xmlns="http://www.w3.org/2000/svg">
<g clip-path="url(#clip0_3171_22674)">
<path d="M14.2549 0C21.846 0.000243014 28 6.1066 28 13.6396C28 21.1722 21.846 27.2781 14.2549 27.2783C11.8448 27.2783 9.57955 26.6627 7.61035 25.582L0 28L2.48047 20.6826C1.22878 18.6267 0.508789 16.2164 0.508789 13.6396C0.508808 6.10645 6.66306 0 14.2549 0ZM14.2549 2.17188C7.88242 2.17188 2.69727 7.31651 2.69727 13.6396C2.69731 16.1492 3.51517 18.4719 4.89844 20.3623L3.45508 24.6211L7.89648 23.21C9.72139 24.4077 11.9074 25.1064 14.2549 25.1064C20.6267 25.1062 25.8104 19.9623 25.8105 13.6396C25.8105 7.31666 20.6268 2.17212 14.2549 2.17188ZM9.89648 7.69043C10.2404 7.70665 10.4111 7.72533 10.6338 8.25781C10.9138 8.92758 11.5882 10.5715 11.6729 10.7393C11.7571 10.9066 11.8328 11.1366 11.7207 11.3594C11.6084 11.5828 11.5142 11.6875 11.3457 11.8828C11.1773 12.0777 11.0174 12.227 10.8447 12.4346C10.6933 12.6164 10.5145 12.8163 10.7109 13.1504C10.9078 13.4856 11.584 14.5792 12.585 15.4648C13.872 16.6035 14.9219 16.9673 15.2949 17.125C15.5785 17.2446 15.9083 17.2142 16.1133 16.999C16.3744 16.7247 16.6898 16.2618 17.0176 15.8115C17.255 15.4856 17.5408 15.4512 17.8496 15.5625C18.1584 15.6738 19.8152 16.4831 20.1523 16.6504C20.4893 16.8181 20.7145 16.9014 20.7988 17.041C20.8828 17.1808 20.8821 17.8497 20.6016 18.6299C20.3208 19.4102 19.2143 20.0541 18.333 20.2451C17.7273 20.3766 16.939 20.474 14.2842 19.3828C10.8828 17.9843 8.69606 14.5588 8.52734 14.3359C8.35805 14.1114 7.15234 12.5222 7.15234 10.8779C7.15246 9.23332 7.99411 8.43187 8.33105 8.08984C8.60786 7.80883 9.06769 7.67973 9.51074 7.67969C9.65057 7.67969 9.77861 7.68483 9.89648 7.69043Z" fill="url(#paint0_linear_3171_22674)"/>
</g>
<defs>
<linearGradient id="paint0_linear_3171_22674" x1="0" y1="14" x2="28" y2="14" gradientUnits="userSpaceOnUse">
<stop stop-color="#DA7B4A"/>
<stop offset="1" stop-color="#C16C3F"/>
</linearGradient>
<clipPath id="clip0_3171_22674">
<rect width="28" height="28" fill="white"/>
</clipPath>
</defs>
</svg>
