<svg width="24" height="25" viewBox="0 0 24 25" fill="none" xmlns="http://www.w3.org/2000/svg">
<path d="M20.8004 8.13622C21.8412 10.3129 22.0387 12.798 21.355 15.1118C20.6713 17.4255 19.1547 19.4041 17.098 20.6654C15.0413 21.9268 12.5902 22.3816 10.2179 21.9421C7.84557 21.5026 5.72013 20.1999 4.25179 18.2855C2.78344 16.371 2.0763 13.9805 2.26682 11.5754C2.45735 9.17021 3.53204 6.92087 5.28348 5.26147C7.03492 3.60208 9.33895 2.65027 11.7509 2.58974C14.1628 2.52922 16.5117 3.36427 18.3442 4.93372L20.4695 2.80747C20.6102 2.66674 20.8011 2.58768 21.0001 2.58768C21.1991 2.58768 21.39 2.66674 21.5307 2.80747C21.6715 2.9482 21.7505 3.13907 21.7505 3.3381C21.7505 3.53712 21.6715 3.72799 21.5307 3.86872L12.5307 12.8687C12.39 13.0095 12.1991 13.0885 12.0001 13.0885C11.8011 13.0885 11.6102 13.0095 11.4695 12.8687C11.3288 12.728 11.2497 12.5371 11.2497 12.3381C11.2497 12.1391 11.3288 11.9482 11.4695 11.8075L14.0682 9.20872C13.3639 8.74293 12.5231 8.52847 11.6817 8.60005C10.8404 8.67163 10.0478 9.02507 9.43231 9.60315C8.81683 10.1812 8.41446 10.9501 8.29034 11.7853C8.16622 12.6205 8.32762 13.4732 8.7484 14.2053C9.16919 14.9374 9.82473 15.506 10.6089 15.8191C11.3931 16.1323 12.26 16.1716 13.0693 15.9307C13.8786 15.6899 14.5829 15.1829 15.0683 14.492C15.5536 13.801 15.7915 12.9664 15.7435 12.1234C15.738 12.0249 15.7519 11.9263 15.7845 11.8332C15.8171 11.7401 15.8677 11.6543 15.9334 11.5807C15.9991 11.5072 16.0787 11.4473 16.1676 11.4045C16.2564 11.3616 16.3529 11.3368 16.4514 11.3312C16.6503 11.32 16.8455 11.3883 16.994 11.5211C17.0676 11.5868 17.1275 11.6664 17.1703 11.7552C17.2131 11.8441 17.238 11.9405 17.2435 12.039C17.3119 13.2323 16.9711 14.4131 16.2774 15.3864C15.5838 16.3597 14.5788 17.0672 13.4285 17.3919C12.2783 17.7166 11.0517 17.6392 9.95147 17.1723C8.85123 16.7055 7.94322 15.8772 7.3775 14.8244C6.81178 13.7715 6.62223 12.5572 6.84017 11.3821C7.05811 10.2069 7.67049 9.14129 8.57611 8.36134C9.48173 7.58139 10.6264 7.13379 11.8208 7.09251C13.0153 7.05124 14.1881 7.41877 15.1454 8.13435L17.2782 6.00154C15.7152 4.70384 13.7279 4.02937 11.6979 4.10767C9.66793 4.18596 7.73844 5.0115 6.28003 6.42572C4.82163 7.83994 3.93715 9.74313 3.79646 11.7697C3.65578 13.7964 4.26881 15.8035 5.51782 17.4057C6.76683 19.0078 8.56375 20.0921 10.5634 20.4501C12.5631 20.8081 14.6246 20.4147 16.3519 19.3454C18.0792 18.2761 19.3506 16.6064 19.9218 14.6569C20.493 12.7073 20.3238 10.6155 19.4467 8.7831C19.3609 8.60358 19.3499 8.39734 19.4162 8.20974C19.4825 8.02215 19.6206 7.86857 19.8001 7.78279C19.9796 7.697 20.1859 7.68605 20.3735 7.75233C20.5611 7.81862 20.7146 7.9567 20.8004 8.13622Z" fill="#EBF6FF"/>
</svg>
