<svg width="24" height="25" viewBox="0 0 24 25" fill="none" xmlns="http://www.w3.org/2000/svg"> <path d="M21.75 19.605C21.75 19.8039 21.671 19.9947 21.5303 20.1353C21.3897 20.276 21.1989 20.355 21 20.355H3C2.80109 20.355 2.61032 20.276 2.46967 20.1353C2.32902 19.9947 2.25 19.8039 2.25 19.605V4.60498C2.25 4.40607 2.32902 4.2153 2.46967 4.07465C2.61032 3.934 2.80109 3.85498 3 3.85498C3.19891 3.85498 3.38968 3.934 3.53033 4.07465C3.67098 4.2153 3.75 4.40607 3.75 4.60498V13.4522L8.50594 9.29248C8.63536 9.17919 8.79978 9.11383 8.97165 9.10734C9.14353 9.10085 9.31241 9.15364 9.45 9.25686L14.9634 13.3922L20.5059 8.54248C20.5786 8.47054 20.6652 8.41423 20.7605 8.37699C20.8557 8.33976 20.9575 8.32239 21.0597 8.32595C21.1619 8.32952 21.2623 8.35394 21.3547 8.39773C21.4471 8.44151 21.5296 8.50373 21.5971 8.58056C21.6645 8.65738 21.7156 8.7472 21.7471 8.84448C21.7786 8.94176 21.7899 9.04446 21.7802 9.14626C21.7706 9.24805 21.7402 9.3468 21.691 9.43644C21.6418 9.52607 21.5748 9.6047 21.4941 9.66748L15.4941 14.9175C15.3646 15.0308 15.2002 15.0961 15.0283 15.1026C14.8565 15.1091 14.6876 15.0563 14.55 14.9531L9.03656 10.8197L3.75 15.4453V18.855H21C21.1989 18.855 21.3897 18.934 21.5303 19.0746C21.671 19.2153 21.75 19.4061 21.75 19.605Z" fill="#EBF6FF"/> </svg>