<svg width="24" height="25" viewBox="0 0 24 25" fill="none" xmlns="http://www.w3.org/2000/svg">
<path d="M12.5 22.3401H18C18.5304 22.3401 19.0391 22.1294 19.4142 21.7543C19.7893 21.3792 20 20.8705 20 20.3401V7.34009L15 2.34009H6C5.46957 2.34009 4.96086 2.5508 4.58579 2.92587C4.21071 3.30095 4 3.80965 4 4.34009V13.8401M14 2.34009V6.34009C14 6.87052 14.2107 7.37923 14.5858 7.7543C14.9609 8.12937 15.4696 8.34009 16 8.34009H20M13.378 15.966C13.5752 15.7687 13.7317 15.5346 13.8384 15.2769C13.9452 15.0192 14.0001 14.7429 14.0001 14.464C14.0001 14.185 13.9452 13.9088 13.8384 13.6511C13.7317 13.3934 13.5752 13.1592 13.378 12.962C13.1807 12.7647 12.9466 12.6083 12.6889 12.5015C12.4311 12.3948 12.1549 12.3398 11.876 12.3398C11.597 12.3398 11.3208 12.3948 11.0631 12.5015C10.8054 12.6083 10.5712 12.7647 10.374 12.962L5.36398 17.974C5.12622 18.2116 4.9522 18.5053 4.85798 18.828L4.02098 21.698C3.99588 21.784 3.99437 21.8753 4.01662 21.9621C4.03887 22.0489 4.08404 22.1282 4.14742 22.1915C4.2108 22.2549 4.29006 22.3001 4.37689 22.3223C4.46372 22.3446 4.55493 22.3431 4.64098 22.318L7.51098 21.481C7.83364 21.3868 8.12735 21.2127 8.36498 20.975L13.378 15.966Z" stroke="#EBF6FF" stroke-width="2" stroke-linecap="round" strokeLinejoin="round"/>
</svg>
