<svg width="22" height="17" viewBox="0 0 22 17" fill="none" xmlns="http://www.w3.org/2000/svg">
<path d="M1.06251 8.6882C0.979165 8.46369 0.979165 8.21672 1.06251 7.9922C1.87421 6.02406 3.25202 4.34124 5.02128 3.1571C6.79053 1.97296 8.87155 1.34082 11.0005 1.34082C13.1295 1.34082 15.2105 1.97296 16.9797 3.1571C18.749 4.34124 20.1268 6.02406 20.9385 7.9922C21.0218 8.21672 21.0218 8.46369 20.9385 8.6882C20.1268 10.6563 18.749 12.3392 16.9797 13.5233C15.2105 14.7074 13.1295 15.3396 11.0005 15.3396C8.87155 15.3396 6.79053 14.7074 5.02128 13.5233C3.25202 12.3392 1.87421 10.6563 1.06251 8.6882Z" stroke="#EBF6FF" stroke-width="2" stroke-linecap="round" strokeLinejoin="round"/>
<path d="M11.0005 11.3401C12.6573 11.3401 14.0005 9.99694 14.0005 8.34009C14.0005 6.68323 12.6573 5.34009 11.0005 5.34009C9.34363 5.34009 8.00049 6.68323 8.00049 8.34009C8.00049 9.99694 9.34363 11.3401 11.0005 11.3401Z" stroke="#EBF6FF" stroke-width="2" stroke-linecap="round" strokeLinejoin="round"/>
</svg>
