<svg width="24" height="25" viewBox="0 0 24 25" fill="none" xmlns="http://www.w3.org/2000/svg">
<path d="M3.25875 4.27747C3.17806 4.34741 3.11324 4.43377 3.06862 4.53077C3.024 4.62778 3.0006 4.7332 3 4.83997V20.59C3 20.7889 3.07902 20.9797 3.21967 21.1203C3.36032 21.261 3.55109 21.34 3.75 21.34C3.94891 21.34 4.13968 21.261 4.28033 21.1203C4.42098 20.9797 4.5 20.7889 4.5 20.59V16.4434C7.01156 14.4597 9.17531 15.5293 11.6672 16.7631C13.2047 17.5234 14.8603 18.3428 16.6359 18.3428C17.9419 18.3428 19.3116 17.8975 20.7441 16.6553C20.8247 16.5853 20.8896 16.499 20.9342 16.402C20.9788 16.305 21.0022 16.1996 21.0028 16.0928V4.83997C21.0025 4.69601 20.9607 4.5552 20.8825 4.43433C20.8043 4.31347 20.693 4.21766 20.5618 4.15835C20.4306 4.09904 20.2852 4.07874 20.1428 4.09986C20.0004 4.12098 19.8671 4.18264 19.7587 4.27747C17.1337 6.54903 14.91 5.44841 12.3328 4.17247C9.66281 2.84872 6.63562 1.35153 3.25875 4.27747ZM19.5 15.7384C16.9884 17.7222 14.8247 16.6515 12.3328 15.4187C9.98906 14.2609 7.38187 12.969 4.5 14.6312V5.19528C7.01156 3.21153 9.17531 4.28122 11.6672 5.51403C14.0109 6.67185 16.6191 7.96372 19.5 6.30153V15.7384Z" fill="#EBF6FF"/>
</svg>
