<svg width="24" height="25" viewBox="0 0 24 25" fill="none" xmlns="http://www.w3.org/2000/svg">
<path d="M16.5001 22.09C16.5001 22.289 16.4211 22.4797 16.2805 22.6204C16.1398 22.761 15.949 22.84 15.7501 22.84H8.25012C8.05121 22.84 7.86045 22.761 7.71979 22.6204C7.57914 22.4797 7.50012 22.289 7.50012 22.09C7.50012 21.8911 7.57914 21.7004 7.71979 21.5597C7.86045 21.4191 8.05121 21.34 8.25012 21.34H15.7501C15.949 21.34 16.1398 21.4191 16.2805 21.5597C16.4211 21.7004 16.5001 21.8911 16.5001 22.09ZM20.2501 10.09C20.2534 11.3403 19.9709 12.5748 19.4243 13.6993C18.8778 14.8238 18.0815 15.8086 17.0964 16.5785C16.9122 16.7197 16.7627 16.9011 16.6593 17.1089C16.556 17.3168 16.5015 17.5455 16.5001 17.7775V18.34C16.5001 18.7379 16.3421 19.1194 16.0608 19.4007C15.7795 19.682 15.3979 19.84 15.0001 19.84H9.00012C8.6023 19.84 8.22077 19.682 7.93946 19.4007C7.65816 19.1194 7.50012 18.7379 7.50012 18.34V17.7775C7.49997 17.5482 7.44724 17.322 7.34599 17.1162C7.24474 16.9105 7.09766 16.7307 6.91606 16.5907C5.93337 15.8253 5.13767 14.8465 4.58916 13.7282C4.04066 12.6099 3.75374 11.3815 3.75012 10.136C3.72575 5.66785 7.337 1.94692 11.8014 1.84004C12.9014 1.81353 13.9956 2.00734 15.0196 2.41006C16.0436 2.81277 16.9767 3.41626 17.7639 4.185C18.5512 4.95374 19.1767 5.8722 19.6037 6.88631C20.0306 7.90043 20.2504 8.98971 20.2501 10.09ZM18.7501 10.09C18.7504 9.18972 18.5705 8.29845 18.2212 7.46869C17.8718 6.63892 17.3599 5.88743 16.7158 5.25846C16.0716 4.62948 15.3081 4.13573 14.4702 3.80627C13.6324 3.4768 12.7371 3.31828 11.837 3.34004C8.18075 3.42629 5.23044 6.47035 5.25012 10.1266C5.25355 11.1453 5.48862 12.1498 5.93755 13.0643C6.38648 13.9787 7.0375 14.779 7.84137 15.4047C8.20273 15.6856 8.49501 16.0455 8.69586 16.4568C8.8967 16.8681 9.00078 17.3198 9.00012 17.7775V18.34H15.0001V17.7775C15.0012 17.3185 15.107 16.8658 15.3096 16.454C15.5122 16.0421 15.8062 15.6819 16.1692 15.401C16.9755 14.7708 17.6272 13.9648 18.0745 13.0443C18.5218 12.1239 18.7529 11.1134 18.7501 10.09ZM17.2398 9.21442C17.0453 8.12813 16.5227 7.12751 15.7423 6.34726C14.9619 5.56701 13.9611 5.0446 12.8748 4.85035C12.7777 4.83398 12.6783 4.8369 12.5823 4.85894C12.4862 4.88099 12.3955 4.92173 12.3153 4.97884C12.235 5.03594 12.1668 5.1083 12.1145 5.19178C12.0622 5.27526 12.0268 5.36822 12.0104 5.46535C11.9941 5.56249 11.997 5.6619 12.019 5.75791C12.0411 5.85392 12.0818 5.94465 12.1389 6.02491C12.196 6.10518 12.2684 6.17341 12.3519 6.22571C12.4353 6.27801 12.5283 6.31335 12.6254 6.32973C14.1789 6.59129 15.497 7.90942 15.7604 9.46567C15.7901 9.64034 15.8807 9.79887 16.0161 9.91316C16.1515 10.0274 16.3229 10.0901 16.5001 10.09C16.5425 10.0898 16.5848 10.0863 16.6267 10.0797C16.8227 10.0463 16.9974 9.9363 17.1124 9.77403C17.2274 9.61176 17.2732 9.41047 17.2398 9.21442Z" fill="#EBF6FF"/>
</svg>
