<svg width="24" height="25" viewBox="0 0 24 25" fill="none" xmlns="http://www.w3.org/2000/svg">
<path d="M20.2299 11.4184C20.2015 11.2982 20.1438 11.1869 20.062 11.0943C19.9803 11.0018 19.8769 10.9308 19.7611 10.8878L14.3602 8.86187L15.7345 1.98718C15.7657 1.82745 15.744 1.66193 15.6728 1.5156C15.6016 1.36927 15.4847 1.25007 15.3398 1.17598C15.1949 1.1019 15.0299 1.07695 14.8696 1.1049C14.7093 1.13285 14.5624 1.21218 14.4511 1.33093L3.95111 12.5809C3.86583 12.6708 3.80413 12.7804 3.77154 12.8999C3.73895 13.0194 3.73647 13.1451 3.76432 13.2659C3.79218 13.3866 3.84951 13.4985 3.93118 13.5917C4.01285 13.6848 4.11632 13.7563 4.23236 13.7997L9.63517 15.8256L8.26454 22.6928C8.23342 22.8525 8.2551 23.0181 8.3263 23.1644C8.3975 23.3107 8.51436 23.4299 8.65926 23.504C8.80415 23.5781 8.9692 23.603 9.12952 23.5751C9.28983 23.5471 9.43671 23.4678 9.54798 23.3491L20.048 12.0991C20.1317 12.0092 20.1921 11.9001 20.2238 11.7814C20.2555 11.6627 20.2576 11.5381 20.2299 11.4184ZM10.253 20.4025L11.2345 15.4919C11.2697 15.3177 11.2418 15.1367 11.156 14.9812C11.0701 14.8256 10.9319 14.7056 10.7658 14.6425L5.81204 12.7816L13.7452 4.28218L12.7645 9.19281C12.7294 9.36696 12.7572 9.54794 12.8431 9.70349C12.9289 9.85904 13.0672 9.97906 13.2333 10.0422L18.1833 11.8984L10.253 20.4025Z" fill="#EBF6FF"/>
</svg>
