<svg width="24" height="25" viewBox="0 0 24 25" fill="none" xmlns="http://www.w3.org/2000/svg">
<path d="M9.72818 17.772C9.69162 17.9173 8.77756 21.3401 3.74975 21.3401C3.55083 21.3401 3.36007 21.2611 3.21942 21.1205C3.07876 20.9798 2.99975 20.789 2.99975 20.5901C2.99975 15.5623 6.42256 14.6483 6.56787 14.6117C6.76094 14.5635 6.96526 14.5939 7.13589 14.6963C7.30652 14.7987 7.42948 14.9647 7.47771 15.1578C7.52595 15.3509 7.49552 15.5552 7.3931 15.7258C7.29069 15.8964 7.12469 16.0194 6.93162 16.0676C6.84725 16.0911 4.82975 16.6808 4.53537 19.8045C7.65912 19.5101 8.24975 17.4964 8.27412 17.4026C8.32385 17.2098 8.44814 17.0446 8.61965 16.9435C8.79115 16.8423 8.99583 16.8134 9.18865 16.8631C9.38147 16.9128 9.54664 17.0371 9.64782 17.2086C9.74901 17.3801 9.77791 17.5848 9.72818 17.7776V17.772ZM18.4469 11.4533L17.9997 11.9004V17.3689C18.0009 17.5666 17.9626 17.7626 17.8873 17.9454C17.812 18.1283 17.7011 18.2943 17.561 18.4339L14.3435 21.6495C14.2047 21.7892 14.0397 21.9001 13.8579 21.9758C13.676 22.0514 13.481 22.0903 13.2841 22.0901C13.1216 22.0901 12.9601 22.0638 12.806 22.0123C12.5413 21.9248 12.3064 21.765 12.1278 21.5509C11.9492 21.3369 11.8341 21.0771 11.7954 20.8011L11.2919 17.1926L7.14725 13.0479L3.54068 12.5445C3.26425 12.5057 3.00413 12.3906 2.78956 12.2121C2.575 12.0335 2.41451 11.7986 2.32616 11.5339C2.2378 11.2691 2.22508 10.9849 2.28942 10.7133C2.35376 10.4417 2.49262 10.1934 2.69037 9.99638L5.906 6.77888C6.04557 6.6388 6.2116 6.52788 6.39444 6.45256C6.57727 6.37723 6.77326 6.33902 6.971 6.34013H12.4394L12.8866 5.89294C15.3879 3.39263 18.4019 3.28482 19.5813 3.35513C19.947 3.37735 20.2919 3.53265 20.551 3.79171C20.81 4.05077 20.9653 4.39569 20.9876 4.76138C21.056 5.93794 20.9482 8.95201 18.4479 11.4533H18.4469ZM3.74975 11.0595L7.23256 11.5451L10.9394 7.84013H6.971L3.74975 11.0595ZM8.561 12.3401L11.9997 15.7789L17.3857 10.3929C18.1115 9.672 18.6746 8.80405 19.0372 7.84741C19.3997 6.89077 19.5533 5.86761 19.4876 4.84669C18.4672 4.78342 17.445 4.9386 16.4894 5.30187C15.5338 5.66514 14.6667 6.22814 13.946 6.95326L8.561 12.3401ZM16.4997 13.4004L12.7938 17.1064L13.2813 20.5901L16.4997 17.3689V13.4004Z" fill="#EBF6FF"/>
</svg>
