<svg width="24" height="25" viewBox="0 0 24 25" fill="none" xmlns="http://www.w3.org/2000/svg">
<path d="M21.5308 20.5743L16.8368 15.8812C18.1973 14.2478 18.8757 12.1528 18.7309 10.0319C18.5861 7.91102 17.6293 5.92763 16.0593 4.4943C14.4894 3.06097 12.4274 2.28806 10.3021 2.33636C8.17687 2.38466 6.15205 3.25045 4.64888 4.75362C3.14571 6.25679 2.27993 8.28161 2.23163 10.4069C2.18333 12.5321 2.95623 14.5942 4.38956 16.1641C5.82289 17.734 7.80629 18.6909 9.92715 18.8357C12.048 18.9805 14.1431 18.302 15.7765 16.9415L20.4696 21.6356C20.5393 21.7053 20.622 21.7605 20.713 21.7982C20.8041 21.836 20.9017 21.8554 21.0002 21.8554C21.0988 21.8554 21.1963 21.836 21.2874 21.7982C21.3784 21.7605 21.4612 21.7053 21.5308 21.6356C21.6005 21.5659 21.6558 21.4832 21.6935 21.3921C21.7312 21.3011 21.7506 21.2035 21.7506 21.105C21.7506 21.0064 21.7312 20.9088 21.6935 20.8178C21.6558 20.7267 21.6005 20.644 21.5308 20.5743ZM3.75021 10.605C3.75021 9.26993 4.14609 7.96488 4.88779 6.85485C5.62949 5.74482 6.6837 4.87966 7.9171 4.36876C9.1505 3.85787 10.5077 3.7242 11.8171 3.98465C13.1264 4.2451 14.3292 4.88798 15.2732 5.83198C16.2172 6.77598 16.8601 7.97872 17.1205 9.28809C17.381 10.5975 17.2473 11.9547 16.7364 13.1881C16.2255 14.4215 15.3603 15.4757 14.2503 16.2174C13.1403 16.9591 11.8352 17.355 10.5002 17.355C8.71061 17.353 6.99488 16.6412 5.72944 15.3757C4.464 14.1103 3.7522 12.3946 3.75021 10.605Z" fill="#EBF6FF"/>
</svg>
