<svg width="24" height="25" viewBox="0 0 24 25" fill="none" xmlns="http://www.w3.org/2000/svg">
<path d="M9 12.3401L11 14.3401L15 10.3401M20 13.34C20 18.34 16.5 20.8401 12.34 22.2901C12.1222 22.3639 11.8855 22.3603 11.67 22.2801C7.5 20.8401 4 18.34 4 13.34V6.34005C4 6.07483 4.10536 5.82048 4.29289 5.63294C4.48043 5.44541 4.73478 5.34005 5 5.34005C7 5.34005 9.5 4.14005 11.24 2.62005C11.4519 2.43905 11.7214 2.3396 12 2.3396C12.2786 2.3396 12.5481 2.43905 12.76 2.62005C14.51 4.15005 17 5.34005 19 5.34005C19.2652 5.34005 19.5196 5.44541 19.7071 5.63294C19.8946 5.82048 20 6.07483 20 6.34005V13.34Z" stroke="#EBF6FF" stroke-width="2" stroke-linecap="round" strokeLinejoin="round"/>
</svg>
