<svg width="24" height="25" viewBox="0 0 24 25" fill="none" xmlns="http://www.w3.org/2000/svg">
<path d="M18.7495 14.355C18.0866 14.3546 17.4424 14.5749 16.9186 14.9812L14.752 13.2937C14.9156 12.9188 14.9998 12.514 14.9995 12.105C14.9995 12.0356 14.9995 11.9662 14.992 11.8978L16.2323 11.4843C16.6247 12.0895 17.222 12.5331 17.9148 12.7338C18.6076 12.9345 19.3495 12.8788 20.0047 12.5771C20.6598 12.2753 21.1842 11.7476 21.482 11.0907C21.7797 10.4337 21.8308 9.69147 21.6259 8.99992C21.421 8.30836 20.9738 7.71379 20.3662 7.3251C19.7586 6.93642 19.0313 6.77964 18.3176 6.8835C17.6038 6.98736 16.9513 7.34489 16.4797 7.89061C16.0081 8.43633 15.7489 9.13369 15.7495 9.85497C15.7495 9.92434 15.7495 9.99372 15.757 10.0622L14.5167 10.4756C14.2448 10.0553 13.872 9.70963 13.4324 9.47023C12.9927 9.23083 12.5001 9.10526 11.9995 9.10497C11.834 9.10531 11.6688 9.11911 11.5055 9.14622L10.8642 7.69872C11.4179 7.25631 11.7971 6.63214 11.9346 5.93686C12.072 5.24157 11.9589 4.52007 11.6152 3.90023C11.2715 3.28039 10.7195 2.80225 10.057 2.55054C9.39442 2.29884 8.66416 2.28983 7.99561 2.52512C7.32706 2.7604 6.7634 3.22479 6.40454 3.83596C6.04567 4.44714 5.91478 5.16563 6.03506 5.86409C6.15533 6.56256 6.51901 7.19588 7.06164 7.65182C7.60426 8.10775 8.29078 8.35686 8.99952 8.35497C9.16506 8.35463 9.33029 8.34083 9.49359 8.31372L10.1348 9.75747C9.59105 10.1879 9.21362 10.7938 9.06708 11.4716C8.92053 12.1494 9.01396 12.8571 9.3314 13.4737L6.92109 15.615C6.31451 15.206 5.57961 15.0324 4.85415 15.1265C4.12869 15.2207 3.46247 15.5762 2.98037 16.1264C2.49827 16.6766 2.23338 17.3838 2.23536 18.1153C2.23734 18.8468 2.50606 19.5526 2.99113 20.1001C3.47621 20.6477 4.14435 20.9996 4.87031 21.0898C5.59627 21.1801 6.33021 21.0024 6.93456 20.5902C7.53892 20.178 7.97219 19.5595 8.15317 18.8507C8.33415 18.1419 8.25041 17.3914 7.91765 16.74L10.328 14.5987C10.8498 14.9501 11.4692 15.128 12.098 15.1071C12.7268 15.0863 13.333 14.8677 13.8305 14.4825L15.997 16.17C15.834 16.5438 15.7497 16.9472 15.7495 17.355C15.7495 17.9483 15.9255 18.5283 16.2551 19.0217C16.5848 19.515 17.0533 19.8995 17.6015 20.1266C18.1497 20.3537 18.7529 20.4131 19.3348 20.2973C19.9167 20.1816 20.4513 19.8958 20.8708 19.4763C21.2904 19.0567 21.5761 18.5222 21.6919 17.9402C21.8076 17.3583 21.7482 16.7551 21.5212 16.2069C21.2941 15.6587 20.9096 15.1902 20.4162 14.8606C19.9229 14.5309 19.3429 14.355 18.7495 14.355ZM18.7495 8.35497C19.0462 8.35497 19.3362 8.44294 19.5829 8.60776C19.8296 8.77259 20.0218 9.00686 20.1353 9.28094C20.2489 9.55503 20.2786 9.85663 20.2207 10.1476C20.1628 10.4386 20.02 10.7059 19.8102 10.9156C19.6004 11.1254 19.3331 11.2683 19.0422 11.3261C18.7512 11.384 18.4496 11.3543 18.1755 11.2408C17.9014 11.1273 17.6671 10.935 17.5023 10.6883C17.3375 10.4417 17.2495 10.1516 17.2495 9.85497C17.2495 9.45714 17.4076 9.07561 17.6889 8.79431C17.9702 8.513 18.3517 8.35497 18.7495 8.35497ZM7.49952 5.35497C7.49952 5.0583 7.5875 4.76829 7.75232 4.52161C7.91714 4.27494 8.15141 4.08268 8.4255 3.96915C8.69959 3.85562 9.00119 3.82591 9.29216 3.88379C9.58313 3.94167 9.8504 4.08453 10.0602 4.29431C10.27 4.50409 10.4128 4.77136 10.4707 5.06233C10.5286 5.35331 10.4989 5.65491 10.3853 5.929C10.2718 6.20308 10.0796 6.43735 9.83288 6.60217C9.5862 6.767 9.29619 6.85497 8.99952 6.85497C8.6017 6.85497 8.22017 6.69693 7.93886 6.41563C7.65756 6.13433 7.49952 5.75279 7.49952 5.35497ZM5.24952 19.605C4.95285 19.605 4.66284 19.517 4.41617 19.3522C4.16949 19.1874 3.97724 18.9531 3.8637 18.679C3.75017 18.4049 3.72047 18.1033 3.77835 17.8123C3.83622 17.5214 3.97908 17.2541 4.18886 17.0443C4.39864 16.8345 4.66592 16.6917 4.95689 16.6338C5.24786 16.5759 5.54946 16.6056 5.82355 16.7191C6.09764 16.8327 6.33191 17.0249 6.49673 17.2716C6.66155 17.5183 6.74952 17.8083 6.74952 18.105C6.74952 18.5028 6.59149 18.8843 6.31018 19.1656C6.02888 19.4469 5.64735 19.605 5.24952 19.605ZM10.4995 12.105C10.4995 11.8083 10.5875 11.5183 10.7523 11.2716C10.9171 11.0249 11.1514 10.8327 11.4255 10.7191C11.6996 10.6056 12.0012 10.5759 12.2922 10.6338C12.5831 10.6917 12.8504 10.8345 13.0602 11.0443C13.27 11.2541 13.4128 11.5214 13.4707 11.8123C13.5286 12.1033 13.4989 12.4049 13.3853 12.679C13.2718 12.9531 13.0796 13.1874 12.8329 13.3522C12.5862 13.517 12.2962 13.605 11.9995 13.605C11.6017 13.605 11.2202 13.4469 10.9389 13.1656C10.6576 12.8843 10.4995 12.5028 10.4995 12.105ZM18.7495 18.855C18.4529 18.855 18.1628 18.767 17.9162 18.6022C17.6695 18.4374 17.4772 18.2031 17.3637 17.929C17.2502 17.6549 17.2205 17.3533 17.2783 17.0623C17.3362 16.7714 17.4791 16.5041 17.6889 16.2943C17.8986 16.0845 18.1659 15.9417 18.4569 15.8838C18.7479 15.8259 19.0495 15.8556 19.3235 15.9691C19.5976 16.0827 19.8319 16.2749 19.9967 16.5216C20.1616 16.7683 20.2495 17.0583 20.2495 17.355C20.2495 17.7528 20.0915 18.1343 19.8102 18.4156C19.5289 18.6969 19.1473 18.855 18.7495 18.855Z" fill="#EBF6FF"/>
</svg>
