<svg width="286" height="124" viewBox="0 0 286 124" fill="none" xmlns="http://www.w3.org/2000/svg">
<path fill-rule="evenodd" clip-rule="evenodd" d="M176.631 97.6676C160.086 109.785 136.104 116.249 115.457 116.249C86.5056 116.249 60.4421 105.61 40.7241 87.9149C39.1749 86.5234 40.563 84.6271 42.422 85.7107C63.7016 98.0124 90.0129 105.413 117.192 105.413C135.522 105.413 155.686 101.645 174.227 93.8257C177.027 92.6435 179.37 95.6481 176.631 97.6676Z" fill="#FF9900"/>
<path fill-rule="evenodd" clip-rule="evenodd" d="M183.509 89.8483C181.403 87.1639 169.53 88.58 164.2 89.208C162.577 89.405 162.329 88.0012 163.791 86.9915C173.248 80.3788 188.764 82.2875 190.574 84.504C192.383 86.7329 190.103 102.187 181.217 109.563C179.853 110.696 178.552 110.093 179.159 108.59C181.155 103.64 185.629 92.5451 183.509 89.8483Z" fill="#FF9900"/>
<path fill-rule="evenodd" clip-rule="evenodd" d="M164.573 40.3094V33.8815C164.573 32.9087 165.317 32.256 166.209 32.256H195.172C196.102 32.256 196.846 32.921 196.846 33.8815V39.3858C196.833 40.3094 196.052 41.5162 194.664 43.4248L179.656 64.7158C185.233 64.5803 191.12 65.4054 196.176 68.2376C197.317 68.8779 197.626 69.8138 197.713 70.7373V77.5962C197.713 78.5321 196.672 79.628 195.581 79.0616C186.671 74.4192 174.835 73.9143 164.982 79.1109C163.978 79.6527 162.925 78.5691 162.925 77.6332V71.1191C162.925 70.0724 162.937 68.2868 163.99 66.6983L181.379 41.9225H166.246C165.317 41.9225 164.573 41.2699 164.573 40.3094Z" fill="black"/>
<path fill-rule="evenodd" clip-rule="evenodd" d="M58.9186 80.4162H50.1069C49.2641 80.3547 48.5949 79.7266 48.5329 78.9262V33.9924C48.5329 33.0935 49.2889 32.3793 50.2308 32.3793H58.4477C59.3028 32.4162 59.9845 33.0688 60.0464 33.8816V39.7554H60.2076C62.3516 34.0786 66.3795 31.4311 71.8078 31.4311C77.3229 31.4311 80.7683 34.0786 83.247 39.7554C85.3787 34.0786 90.2245 31.4311 95.4174 31.4311C99.1106 31.4311 103.151 32.9457 105.617 36.3444C108.406 40.1248 107.836 45.6168 107.836 50.4316L107.823 78.7908C107.823 79.6897 107.067 80.4162 106.125 80.4162H97.326C96.4461 80.3547 95.7396 79.6528 95.7396 78.7908V54.9755C95.7396 53.0791 95.9131 48.3505 95.4918 46.5527C94.8349 43.5358 92.8643 42.6861 90.3113 42.6861C88.1796 42.6861 85.9488 44.1022 85.0441 46.368C84.1393 48.6338 84.2261 52.4265 84.2261 54.9755V78.7908C84.2261 79.6897 83.4701 80.4162 82.5282 80.4162H73.7288C72.8365 80.3547 72.1425 79.6528 72.1425 78.7908L72.1301 54.9755C72.1301 49.9637 72.9604 42.5876 66.7017 42.5876C60.3687 42.5876 60.6165 49.779 60.6165 54.9755V78.7908C60.6165 79.6897 59.8605 80.4162 58.9186 80.4162Z" fill="black"/>
<path fill-rule="evenodd" clip-rule="evenodd" d="M221.781 31.4311C234.856 31.4311 241.933 42.5876 241.933 56.7733C241.933 70.4788 234.112 81.3521 221.781 81.3521C208.941 81.3521 201.951 70.1956 201.951 56.2931C201.951 42.3044 209.028 31.4311 221.781 31.4311ZM221.855 40.605C215.361 40.605 214.952 49.3972 214.952 54.877C214.952 60.369 214.865 72.092 221.781 72.092C228.61 72.092 228.932 62.6348 228.932 56.8718C228.932 53.0791 228.771 48.5476 227.618 44.9519C226.627 41.8241 224.656 40.605 221.855 40.605Z" fill="black"/>
<path fill-rule="evenodd" clip-rule="evenodd" d="M258.887 80.4162H250.113C249.233 80.3547 248.526 79.6528 248.526 78.7908L248.514 33.8446C248.588 33.0196 249.32 32.3793 250.212 32.3793H258.379C259.148 32.4162 259.78 32.9334 259.953 33.6353V40.5065H260.114C262.58 34.3618 266.038 31.4311 272.123 31.4311C276.077 31.4311 279.931 32.8472 282.41 36.7261C284.715 40.3218 284.715 46.368 284.715 50.7148V79.0001C284.616 79.7882 283.885 80.4162 283.017 80.4162H274.181C273.375 80.3547 272.706 79.7636 272.619 79.0001V54.5937C272.619 49.6805 273.189 42.4891 267.104 42.4891C264.96 42.4891 262.989 43.9175 262.01 46.0848C260.771 48.8308 260.61 51.5645 260.61 54.5937V78.7908C260.598 79.6897 259.829 80.4162 258.887 80.4162Z" fill="black"/>
<path fill-rule="evenodd" clip-rule="evenodd" d="M141.484 58.9528C141.484 62.3638 141.571 65.2083 139.836 68.2376C138.435 70.7004 136.204 72.215 133.738 72.215C130.355 72.215 128.372 69.6537 128.372 65.8733C128.372 58.411 135.101 57.0565 141.484 57.0565V58.9528ZM150.37 80.293C149.788 80.8102 148.945 80.8472 148.288 80.5024C145.363 78.0888 144.83 76.9682 143.232 74.6655C138.398 79.5665 134.965 81.0319 128.706 81.0319C121.283 81.0319 115.52 76.488 115.52 67.3879C115.52 60.2827 119.386 55.4433 124.914 53.079C129.698 50.9857 136.378 50.6162 141.484 50.0375V48.9046C141.484 46.8235 141.645 44.3607 140.406 42.5629C139.34 40.9497 137.283 40.2848 135.461 40.2848C132.102 40.2848 129.115 41.9964 128.384 45.5429C128.235 46.331 127.653 47.1067 126.847 47.1437L118.308 46.2324C117.589 46.0724 116.784 45.4936 116.995 44.3977C118.953 34.1031 128.322 31 136.7 31C140.988 31 146.59 32.1329 149.974 35.3592C154.262 39.3366 153.853 44.6439 153.853 50.4192V64.0631C153.853 68.1637 155.563 69.9616 157.174 72.1781C157.732 72.9662 157.856 73.9144 157.137 74.5054C155.34 75.9954 152.142 78.7661 150.383 80.3177L150.37 80.293Z" fill="black"/>
<path fill-rule="evenodd" clip-rule="evenodd" d="M25.9643 58.9528C25.9643 62.3638 26.051 65.2083 24.316 68.2376C22.9155 70.7004 20.6971 72.215 18.2184 72.215C14.835 72.215 12.8644 69.6537 12.8644 65.8733C12.8644 58.411 19.5941 57.0565 25.9643 57.0565V58.9528ZM34.8504 80.293C34.2679 80.8102 33.4251 80.8471 32.7683 80.5023C29.8434 78.0888 29.3229 76.9682 27.7118 74.6655C22.8783 79.5665 19.4577 81.0318 13.1866 81.0318C5.77534 81.0318 0 76.488 0 67.3879C0 60.2827 3.87915 55.4433 9.39424 53.079C14.1781 50.9856 20.8582 50.6162 25.9643 50.0375V48.9046C25.9643 46.8235 26.1254 44.3607 24.8985 42.5629C23.8202 40.9497 21.7629 40.2848 19.9535 40.2848C16.5948 40.2848 13.5956 41.9964 12.8644 45.5428C12.7157 46.3309 12.1332 47.1067 11.34 47.1437L2.78853 46.2324C2.06971 46.0724 1.27652 45.4936 1.47482 44.3977C3.44538 34.1031 12.8024 31 21.1804 31C25.4685 31 31.0704 32.1329 34.4538 35.3592C38.7419 39.3366 38.333 44.6439 38.333 50.4192V64.0631C38.333 68.1637 40.0433 69.9615 41.6544 72.1781C42.2245 72.9661 42.3484 73.9143 41.6296 74.5054C39.8326 75.9954 36.6351 78.7661 34.8752 80.3176L34.8504 80.293Z" fill="black"/>
</svg>
