<svg width="164" height="48" viewBox="0 0 164 48" fill="none" xmlns="http://www.w3.org/2000/svg">
<path d="M39.6255 32.5718L40.64 32.3629C41.5352 32.1242 41.7739 32.0049 41.7739 30.2145V16.1605C41.7739 14.3702 41.5053 14.221 40.64 14.0121L39.6255 13.8033V12.9678H55.7981L56.0965 18.9057H55.1715C54.4255 17.2645 53.9481 16.3992 53.5005 15.7428C52.5456 14.3702 51.919 14.2508 49.8602 14.2508C48.3384 14.2508 47.5924 14.4299 47.1448 14.5492V22.1581H47.9505C50.0392 22.1581 50.5166 21.9194 50.8747 21.2629C51.2924 20.517 51.5311 19.95 51.7997 18.9952H52.6948V26.6936H51.7997C51.5311 25.7686 51.2924 25.1718 50.8747 24.3065C50.5166 23.5605 50.1287 23.4113 47.9505 23.4113H47.1448V29.1404C47.1448 31.796 47.2344 32.0944 50.1287 32.0944C52.5158 32.0944 52.9932 31.796 53.9779 30.3339C54.515 29.5283 55.0819 28.275 55.8577 26.3952H56.8126L56.3948 33.4073H39.6553L39.6255 32.5718ZM59.319 21.3823C58.6327 19.7113 58.3045 19.2936 57.5585 19.0549L56.9916 18.8758V18.1H65.8537V18.8758L65.0481 19.0847C64.4215 19.2637 64.1231 19.5621 64.1231 20.2783C64.1231 20.696 64.2723 21.2033 64.511 21.8597L66.9876 28.6629H67.1368L69.5239 21.8597C69.7924 21.1436 69.9118 20.6363 69.9118 20.2186C69.9118 19.5621 69.6134 19.2339 68.9868 19.0847L68.1811 18.8758V18.1H73.6416V18.8758L73.0747 19.0549C72.2989 19.3234 71.9706 19.771 71.2545 21.7105L66.6892 33.4073H64.1827L59.319 21.3823ZM72.9553 25.6791C72.9553 20.5468 76.7448 17.7121 80.6537 17.7121C84.7118 17.7121 87.2481 19.7412 87.3376 25.0823H77.5803C77.6698 29.9162 79.49 31.2291 82.5335 31.2291C84.3537 31.2291 85.7561 30.692 86.8602 30.125V31.1097C85.8158 32.2436 83.5779 33.7952 80.6239 33.7952C75.4916 33.7355 72.9553 30.692 72.9553 25.6791ZM77.5803 23.9484L82.6231 23.6799C82.6231 20.1291 82.1456 18.8162 80.3852 18.8162C78.8932 18.8162 77.6997 20.2484 77.5803 23.9484ZM95.0956 19.9799C95.9311 19.0847 97.6319 17.6226 99.6013 17.6226C100.855 17.6226 101.899 18.6371 101.899 19.9202C101.899 21.2033 100.884 22.2178 99.6013 22.2178C98.6763 22.2178 97.8408 21.6508 97.5126 20.8452C97.3335 20.517 96.9456 20.4275 96.6771 20.4275C96.14 20.4275 95.5134 20.8154 95.1255 21.1734V30.7218C95.1255 32.0944 95.2448 32.2436 96.14 32.3928L97.1247 32.6016V33.4073H88.6206V32.6016L89.3965 32.3928C90.3811 32.1242 90.5005 31.975 90.5005 30.7218V21.5613C90.5005 20.3081 90.3513 20.2186 89.5158 19.6516L88.5311 18.9952V18.3984L94.7376 17.6823L95.0658 17.921L95.0061 19.95L95.0956 19.9799ZM102.794 32.6016L103.57 32.3928C104.555 32.1242 104.674 31.975 104.674 30.7218V21.5613C104.674 20.3081 104.525 20.2186 103.689 19.6516L102.705 18.9952V18.3984L108.911 17.6823L109.239 17.8912L109.18 19.771H109.299C110.85 18.667 112.79 17.6823 114.938 17.6823C117.445 17.6823 118.788 18.9654 118.788 21.621V30.692C118.788 31.975 118.907 32.1242 119.862 32.3629L120.638 32.5718V33.3774H112.432V32.5718L113.148 32.3928C114.043 32.1541 114.133 32.0645 114.133 30.692V22.7847C114.133 20.9944 113.476 20.4275 112.104 20.4275C111.059 20.4275 110.015 20.6662 109.359 20.8154V30.7218C109.359 32.1242 109.448 32.1839 110.343 32.4226L111.059 32.6016V33.4073H102.854V32.6016H102.794ZM121.205 25.7686C121.205 20.1291 125.203 17.7121 129.171 17.7121C133.438 17.7121 137.168 20.2783 137.168 25.6194C137.168 31.2589 133.23 33.7355 129.171 33.7355C124.905 33.7355 121.205 31.1694 121.205 25.7686ZM132.215 25.9178C132.215 19.9799 131.081 18.846 129.052 18.846C127.202 18.846 126.098 20.1887 126.098 25.2613C126.098 31.2887 127.083 32.6016 129.231 32.6016C130.992 32.6016 132.215 31.5573 132.215 25.9178ZM139.705 29.6775V19.8307H137.855V19.1145C140.152 18.2194 141.913 16.5186 142.748 14.1613H144.419V18.1H148.328L147.94 19.8307H144.419V29.3791C144.419 30.8412 144.867 31.4379 146.329 31.4379C147.045 31.4379 147.91 31.2887 148.447 31.1694V32.0049C147.731 32.6613 146.269 33.7355 143.792 33.7355C141.137 33.7355 139.705 32.5718 139.705 29.6775ZM149.044 25.6791C149.044 20.5468 152.834 17.7121 156.742 17.7121C160.8 17.7121 163.337 19.7412 163.426 25.0823H153.699C153.788 29.9162 155.609 31.2291 158.652 31.2291C160.472 31.2291 161.875 30.692 162.979 30.125V31.1097C161.934 32.2436 159.696 33.7952 156.742 33.7952C151.58 33.7355 149.044 30.692 149.044 25.6791ZM153.669 23.9484L158.712 23.6799C158.712 20.1291 158.234 18.8162 156.474 18.8162C154.982 18.8162 153.788 20.2484 153.669 23.9484Z" fill="black"/>
<path d="M9.72774 15.265C9.72774 15.6231 9.69791 16.2198 9.33984 16.6077C8.95194 16.9658 8.35516 16.9956 7.9971 16.9956H4.17775C3.07371 16.9956 2.41726 16.9956 1.96968 17.0553C1.73097 17.0852 1.43259 17.2045 1.28339 17.2642C1.22371 17.294 1.22371 17.2642 1.25355 17.2344L9.96645 8.37226C9.99629 8.34242 10.0261 8.34242 9.99629 8.4021C9.93662 8.55129 9.81726 8.84968 9.78742 9.08839C9.72775 9.53597 9.72774 10.1924 9.72774 11.2965V15.265ZM17.8439 42.0602C16.8294 41.4037 16.2923 40.5384 16.0834 40.0013C15.8745 39.494 15.7552 38.9271 15.7552 38.3602C15.7552 35.8835 17.7842 33.8545 20.2906 33.8545C21.0366 33.8545 21.6334 34.4513 21.6334 35.1973C21.6334 35.7045 21.3648 36.1223 20.9471 36.361C20.7979 36.4505 20.589 36.5102 20.4398 36.54C20.2906 36.5698 19.7237 36.6295 19.4552 36.8682C19.1568 37.1069 18.9181 37.4948 18.9181 37.9126C18.9181 38.3602 19.0971 38.7779 19.3955 39.0763C19.9326 39.6134 20.6487 39.9118 21.4245 39.9118C23.4535 39.9118 25.0947 38.2706 25.0947 36.2416C25.0947 34.4215 23.8713 32.8102 22.26 32.094C22.0213 31.9747 21.6334 31.8852 21.2753 31.7956C20.8277 31.7061 20.41 31.6465 20.3802 31.6465C19.1269 31.4973 15.9939 30.5126 15.785 27.7376C15.785 27.7376 14.86 31.915 13.01 33.0489C12.831 33.1384 12.5923 33.2279 12.3237 33.2876C12.0552 33.3473 11.7568 33.3771 11.6673 33.3771C8.65355 33.5561 5.46081 32.6013 3.25275 30.3336C3.25275 30.3336 1.76081 29.1102 0.985005 25.6787C0.805973 24.8432 0.447908 23.3513 0.239037 21.9489C0.149521 21.4416 0.119682 21.0537 0.0898438 20.6956C0.0898438 19.2336 0.985005 18.2489 2.11888 18.0997C2.14871 18.0997 2.23823 18.0997 2.29791 18.0997C2.9842 18.0997 8.20597 18.0997 8.20597 18.0997C9.25033 18.0997 9.8471 17.8311 10.235 17.4731C10.7423 16.9956 10.8616 16.3094 10.8616 15.5037C10.8616 15.5037 10.8616 10.0731 10.8616 9.38678C10.8616 9.35694 10.8616 9.23758 10.8616 9.20774C11.0108 8.10371 11.9955 7.17871 13.4576 7.17871C13.4576 7.17871 13.9052 7.17871 14.1737 7.17871C14.4721 7.17871 14.8302 7.20855 15.1584 7.23839C15.3971 7.26823 15.606 7.3279 15.964 7.41742C17.7842 7.865 18.1721 9.715 18.1721 9.715C18.1721 9.715 21.6035 10.3118 23.3342 10.6102C24.9753 10.9086 29.0334 11.1771 29.8092 15.265C31.6294 24.9924 30.5253 34.4215 30.4358 34.4215C29.1527 43.6118 21.514 43.1642 21.514 43.1642C19.8729 43.1642 18.6495 42.6271 17.8439 42.0602ZM24.7068 22.5158C23.7221 22.4263 22.8866 22.8142 22.5882 23.5602C22.5285 23.7094 22.4689 23.8884 22.4987 23.9779C22.5285 24.0674 22.5882 24.0973 22.6479 24.1271C23.006 24.3061 23.6027 24.3956 24.4681 24.4852C25.3334 24.5747 25.9302 24.6344 26.3181 24.5747C26.3777 24.5747 26.4374 24.5448 26.4971 24.4553C26.5568 24.3658 26.5269 24.1868 26.5269 24.0376C26.4076 23.2021 25.6914 22.6352 24.7068 22.5158Z" fill="#00A82D"/>
</svg>
