<svg width="294" height="124" viewBox="0 0 294 124" fill="none" xmlns="http://www.w3.org/2000/svg">
<path d="M125.503 66.2629C125.503 80.0146 114.668 90.148 101.372 90.148C88.075 90.148 77.2402 80.0146 77.2402 66.2629C77.2402 52.4143 88.075 42.3779 101.372 42.3779C114.668 42.3779 125.503 52.4143 125.503 66.2629ZM114.94 66.2629C114.94 57.6695 108.66 51.7898 101.372 51.7898C94.0835 51.7898 87.8039 57.6695 87.8039 66.2629C87.8039 74.7703 94.0835 80.7361 101.372 80.7361C108.66 80.7361 114.94 74.7595 114.94 66.2629Z" fill="#EA4335"/>
<path d="M177.563 66.2629C177.563 80.0146 166.728 90.148 153.431 90.148C140.134 90.148 129.3 80.0146 129.3 66.2629C129.3 52.4251 140.134 42.3779 153.431 42.3779C166.728 42.3779 177.563 52.4143 177.563 66.2629ZM166.999 66.2629C166.999 57.6695 160.719 51.7898 153.431 51.7898C146.143 51.7898 139.863 57.6695 139.863 66.2629C139.863 74.7703 146.143 80.7361 153.431 80.7361C160.719 80.7361 166.999 74.7595 166.999 66.2629Z" fill="#FBBC05"/>
<path d="M227.453 43.8209V86.702C227.453 104.341 216.976 111.546 204.591 111.546C192.931 111.546 185.914 103.803 183.268 97.4708L192.465 93.6694C194.103 97.5569 198.116 102.144 204.58 102.144C212.508 102.144 217.421 97.2877 217.421 88.145V84.7098H217.052C214.688 87.6066 210.133 90.1373 204.384 90.1373C192.357 90.1373 181.338 79.7347 181.338 66.3491C181.338 52.8666 192.357 42.3779 204.384 42.3779C210.122 42.3779 214.677 44.9085 217.052 47.7192H217.421V43.8317H227.453V43.8209ZM218.169 66.3491C218.169 57.9387 212.519 51.7898 205.328 51.7898C198.04 51.7898 191.934 57.9387 191.934 66.3491C191.934 74.6733 198.04 80.7361 205.328 80.7361C212.519 80.7361 218.169 74.6733 218.169 66.3491Z" fill="#4285F4"/>
<path d="M243.991 18.6868V88.6837H233.688V18.6868H243.991Z" fill="#34A853"/>
<path d="M284.143 74.1241L292.342 79.5515C289.696 83.4391 283.319 90.1372 272.3 90.1372C258.634 90.1372 248.428 79.6485 248.428 66.2521C248.428 52.0482 258.721 42.3671 271.117 42.3671C283.601 42.3671 289.707 52.2312 291.702 57.5618L292.798 60.2755L260.641 73.4995C263.103 78.2916 266.931 80.7361 272.3 80.7361C277.679 80.7361 281.41 78.1085 284.143 74.1241ZM258.905 65.5306L280.401 56.668C279.219 53.685 275.662 51.6066 271.475 51.6066C266.107 51.6066 258.634 56.3126 258.905 65.5306V65.5306Z" fill="#EA4335"/>
<path d="M38.2393 60.0489V49.9155H72.6307C72.9669 51.6816 73.1405 53.7707 73.1405 56.0322C73.1405 63.6349 71.0473 73.036 64.3013 79.7342C57.7397 86.5185 49.3561 90.1368 38.2502 90.1368C17.6652 90.1368 0.355652 73.4883 0.355652 53.0492C0.355652 32.6102 17.6652 15.9617 38.2502 15.9617C49.6381 15.9617 57.7506 20.3984 63.8458 26.1812L56.6443 33.3317C52.2735 29.2611 46.3518 26.0951 38.2393 26.0951C23.2073 26.0951 11.4507 38.1238 11.4507 53.0492C11.4507 67.9747 23.2073 80.0034 38.2393 80.0034C47.9895 80.0034 53.5425 76.1159 57.0998 72.5837C59.9848 69.7193 61.8827 65.6271 62.6311 60.0382L38.2393 60.0489V60.0489Z" fill="#4285F4"/>
</svg>
