<svg width="426" height="124" viewBox="0 0 426 124" fill="none" xmlns="http://www.w3.org/2000/svg">
<path d="M425.63 56.4041V48.9597H416.335V37.3866L416.022 37.4824L407.291 40.1391L407.119 40.1911V48.9602H393.339V44.075C393.339 41.8004 393.85 40.0597 394.858 38.8988C395.859 37.7518 397.291 37.1687 399.117 37.1687C400.429 37.1687 401.788 37.4763 403.156 38.0827L403.499 38.235V30.3951L403.338 30.3361C402.062 29.88 400.326 29.6503 398.175 29.6503C395.464 29.6503 393 30.2371 390.852 31.4C388.702 32.5645 387.011 34.227 385.827 36.3408C384.646 38.4521 384.047 40.8905 384.047 43.589V48.9597H377.575V56.4041H384.047V87.7658H393.339V56.4041H407.119V76.334C407.119 84.542 411.012 88.7015 418.69 88.7015C419.951 88.7015 421.279 88.5545 422.635 88.2666C424.015 87.971 424.955 87.6757 425.508 87.3604L425.631 87.2884V79.7752L425.253 80.0238C424.748 80.3579 424.12 80.631 423.384 80.8341C422.645 81.0409 422.027 81.1445 421.549 81.1445C419.75 81.1445 418.42 80.6626 417.594 79.7114C416.759 78.7515 416.335 77.0731 416.335 74.7251V56.4041H425.63ZM356.825 81.1458C353.452 81.1458 350.793 80.0336 348.919 77.8429C347.034 75.6411 346.079 72.502 346.079 68.5137C346.079 64.3988 347.034 61.1782 348.92 58.9376C350.795 56.7116 353.429 55.5819 356.749 55.5819C359.971 55.5819 362.535 56.6609 364.373 58.7906C366.219 60.9313 367.156 64.1261 367.156 68.2889C367.156 72.5028 366.275 75.7398 364.537 77.9051C362.812 80.0541 360.217 81.1458 356.825 81.1458V81.1458ZM357.238 48.0249C350.804 48.0249 345.693 49.8999 342.049 53.5979C338.408 57.2964 336.562 62.4145 336.562 68.8114C336.562 74.8873 338.364 79.7744 341.919 83.3348C345.474 86.8965 350.311 88.7007 356.297 88.7007C362.534 88.7007 367.543 86.7995 371.185 83.0503C374.827 79.3051 376.672 74.2354 376.672 67.9879C376.672 61.817 374.94 56.8934 371.524 53.3568C368.106 49.8184 363.299 48.0249 357.238 48.0249V48.0249ZM321.581 48.0249C317.204 48.0249 313.583 49.1383 310.818 51.3335C308.035 53.5418 306.624 56.4381 306.624 59.9428C306.624 61.7646 306.929 63.3829 307.528 64.7555C308.131 66.1326 309.065 67.345 310.305 68.3626C311.535 69.372 313.435 70.4292 315.953 71.5049C318.069 72.371 319.647 73.1036 320.65 73.6809C321.63 74.2468 322.325 74.8156 322.718 75.3696C323.099 75.9118 323.293 76.6538 323.293 77.5694C323.293 80.1765 321.33 81.4451 317.29 81.4451C315.792 81.4451 314.083 81.1339 312.211 80.5205C310.352 79.9164 308.597 79.0316 307.009 77.8973L306.623 77.6222V86.519L306.765 86.5845C308.079 87.1881 309.737 87.697 311.691 88.0975C313.641 88.4984 315.412 88.7023 316.951 88.7023C321.701 88.7023 325.525 87.5836 328.316 85.3753C331.125 83.1518 332.548 80.1872 332.548 76.5612C332.548 73.9454 331.782 71.7023 330.271 69.8932C328.772 68.0989 326.168 66.4515 322.537 64.9954C319.644 63.8407 317.791 62.8821 317.026 62.1463C316.289 61.4354 315.915 60.4301 315.915 59.157C315.915 58.0285 316.377 57.1244 317.325 56.3922C318.281 55.6564 319.611 55.2821 321.28 55.2821C322.828 55.2821 324.412 55.5254 325.987 56.002C327.561 56.4786 328.944 57.117 330.098 57.8979L330.477 58.1559V49.7165L330.332 49.6542C329.267 49.2001 327.863 48.8115 326.157 48.4962C324.46 48.183 322.92 48.0249 321.581 48.0249V48.0249ZM282.401 81.1458C279.029 81.1458 276.37 80.0336 274.496 77.8429C272.61 75.6411 271.657 72.5028 271.657 68.5137C271.657 64.3988 272.612 61.1782 274.498 58.9376C276.372 56.7116 279.005 55.5819 282.327 55.5819C285.547 55.5819 288.112 56.6609 289.949 58.7906C291.796 60.9313 292.733 64.1261 292.733 68.2889C292.733 72.5028 291.851 75.7398 290.114 77.9051C288.388 80.0541 285.795 81.1458 282.401 81.1458V81.1458ZM282.815 48.0249C276.379 48.0249 271.269 49.8999 267.627 53.5979C263.985 57.2964 262.138 62.4145 262.138 68.8114C262.138 74.8897 263.941 79.7744 267.496 83.3348C271.051 86.8965 275.889 88.7007 281.874 88.7007C288.11 88.7007 293.12 86.7995 296.762 83.0503C300.403 79.3051 302.249 74.2354 302.249 67.9879C302.249 61.817 300.517 56.8934 297.1 53.3568C293.682 49.8184 288.875 48.0249 282.815 48.0249V48.0249ZM248.033 55.6801V48.9597H238.855V87.765H248.033V67.9146C248.033 64.5393 248.803 61.7663 250.321 59.6718C251.821 57.6023 253.818 56.5536 256.257 56.5536C257.084 56.5536 258.012 56.6891 259.017 56.9573C260.012 57.2239 260.733 57.5134 261.158 57.818L261.543 58.0961V48.8934L261.395 48.8299C260.54 48.4688 259.331 48.2866 257.801 48.2866C255.494 48.2866 253.43 49.0236 251.662 50.4748C250.11 51.7504 248.989 53.4993 248.131 55.6801H248.033ZM222.418 48.0249C218.207 48.0249 214.451 48.9229 211.257 50.6931C208.056 52.4674 205.58 55.0004 203.895 58.2214C202.218 61.4346 201.367 65.1879 201.367 69.3736C201.367 73.0401 202.192 76.4048 203.824 79.3702C205.457 82.3406 207.767 84.6644 210.692 86.2761C213.613 87.8858 216.989 88.7019 220.727 88.7019C225.089 88.7019 228.813 87.8346 231.799 86.1242L231.919 86.0554V77.6926L231.534 77.9727C230.181 78.9526 228.67 79.7347 227.043 80.2981C225.421 80.8612 223.942 81.1458 222.645 81.1458C219.044 81.1458 216.152 80.025 214.054 77.8155C211.951 75.603 210.884 72.4963 210.884 68.587C210.884 64.6531 211.996 61.4665 214.188 59.1153C216.373 56.771 219.27 55.5819 222.797 55.5819C225.813 55.5819 228.753 56.5978 231.534 58.6042L231.919 58.8823V50.0707L231.795 50.0011C230.748 49.4184 229.321 48.9372 227.549 48.5724C225.784 48.2083 224.058 48.0249 222.418 48.0249V48.0249ZM195.046 48.9602H185.867V87.765H195.046V48.9602V48.9602ZM190.55 32.429C189.04 32.429 187.722 32.9404 186.64 33.9539C185.553 34.9702 185.001 36.2499 185.001 37.76C185.001 39.2465 185.546 40.5027 186.623 41.492C187.692 42.4785 189.014 42.9785 190.551 42.9785C192.087 42.9785 193.413 42.4785 194.496 41.4937C195.585 40.5027 196.138 39.2469 196.138 37.76C196.138 36.3027 195.6 35.0362 194.541 33.9949C193.482 32.9556 192.139 32.429 190.55 32.429ZM167.649 46.0971V87.765H177.016V33.6169H164.052L147.574 73.8365L131.582 33.6169H118.09V87.7646H126.893V46.093H127.195L144.081 87.765H150.724L167.347 46.0971H167.649V46.0971Z" fill="black"/>
<path d="M43.1779 58.4643H0V15.5229H43.1779V58.4643Z" fill="#F1511B"/>
<path d="M90.8514 58.4643H47.6743V15.5229H90.8514V58.4643Z" fill="#80CC28"/>
<path d="M43.1767 105.893H0V62.9522H43.1767V105.893Z" fill="#00ADEF"/>
<path d="M90.8514 105.893H47.6743V62.9522H90.8514V105.893Z" fill="#FBBC09"/>
</svg>
