<svg width="111" height="30" viewBox="0 0 111 30" fill="none" xmlns="http://www.w3.org/2000/svg">
<path d="M15.2636 28.0663C13.5938 28.3595 11.8945 28.4474 10.1368 28.6816L4.77531 12.9786V29.3555C3.10546 29.5313 1.58205 29.7656 0 30V0H4.45325L10.5469 17.0217V0H15.2636V28.0663ZM24.4922 10.9863C26.3087 10.9863 29.0919 10.8984 30.7618 10.8984V15.5858C28.6816 15.5858 26.2501 15.5858 24.4922 15.6737V22.6465C27.2462 22.4708 30.0001 22.2362 32.7832 22.1483V26.6597L19.8046 27.6854V0H32.7832V4.68751H24.4922V10.9863ZM50.2148 4.68762H45.3516V26.2501C43.7695 26.2501 42.1875 26.2501 40.6643 26.3085V4.68762H35.801V0H50.215L50.2148 4.68762ZM57.8319 10.6642H64.248V15.3516H57.8319V25.9864H53.232V0H66.3281V4.68751H57.8319V10.6642ZM73.9452 21.8848C76.6113 21.9432 79.3065 22.1486 81.914 22.2948V26.9238C77.7246 26.66 73.5351 26.3966 69.2578 26.3085V0H73.9452V21.8848ZM85.869 27.2461C87.3632 27.3341 88.9452 27.422 90.4686 27.5975V0H85.869V27.2461ZM111.006 0L105.059 14.2676L111.006 30C109.248 29.7656 107.49 29.4433 105.732 29.1503L102.363 20.4786L98.9359 28.4474C97.2363 28.1542 95.5957 28.0663 93.8968 27.8319L99.9319 14.0917L94.4825 0H99.5214L102.598 7.88088L105.879 0H111.006V0Z" fill="#D81F26"/>
</svg>
