<svg width="320" height="110" viewBox="0 0 320 110" fill="none" xmlns="http://www.w3.org/2000/svg">
<path d="M53.8105 1.5498C71.7867 9.98106 83.3222 14.062 105.773 19.3945C107.611 43.0841 104.993 59.3396 96.8711 72.6055C88.7026 85.9478 74.859 96.4541 53.8105 108.391C32.7621 96.4541 18.9185 85.9478 10.75 72.6055C2.62835 59.3396 0.00917673 43.0841 1.84668 19.3945C24.2985 14.0619 35.8342 9.98117 53.8105 1.5498Z" fill="#0047FF" stroke="#030087" stroke-width="2.57019"/>
<path d="M80.4918 31.9077H92.9781C93.6424 31.9079 94.1363 32.5225 93.9938 33.1714L79.1725 100.648C79.0676 101.125 78.6443 101.464 78.1559 101.464H65.6705C65.0062 101.464 64.5126 100.851 64.6549 100.202L79.4762 32.7251C79.581 32.2481 80.0035 31.9079 80.4918 31.9077Z" fill="white" stroke="#030087" stroke-width="2.57019"/>
<path d="M84.2585 15.3462H96.6296C97.3024 15.3463 97.7985 15.9753 97.6414 16.6294L95.9675 23.5874C95.8551 24.0548 95.4365 24.3842 94.9558 24.3843H82.5847C81.9119 24.3843 81.4158 23.7552 81.573 23.1011L83.2468 16.1431C83.3593 15.6756 83.7778 15.3462 84.2585 15.3462Z" fill="white" stroke="#030087" stroke-width="2.57019"/>
<path d="M42.9697 100.913C42.7396 101.984 41.7923 102.75 40.6962 102.75H25.458C23.9796 102.75 22.8766 101.388 23.1832 99.942L36.8855 35.3225C37.1133 34.248 38.0619 33.4795 39.1602 33.4795H63.5852C79.1103 33.4795 88.7786 41.6727 85.2459 58.1523L84.8741 59.9213C81.1555 77.1458 72.1379 85.4321 55.7762 85.4321H48.1728C47.0767 85.4321 46.1295 86.1976 45.8993 87.2693L42.9697 100.913ZM55.7113 49.7729C54.6114 49.7729 53.662 50.5435 53.4357 51.6199L50.3229 66.4282C50.0191 67.8733 51.1218 69.2318 52.5985 69.2318H55.2184C59.9596 69.2318 63.3063 67.3697 64.9797 59.8282L65.2586 58.4317C66.653 52.1005 64.5148 49.7729 59.4948 49.7729H55.7113Z" fill="#030087"/>
<path d="M32.976 89.0414C32.7458 90.1131 31.7986 90.8786 30.7024 90.8786H15.4642C13.9859 90.8786 12.8828 89.5171 13.1895 88.0709L26.8917 23.4514C27.1195 22.3769 28.0681 21.6084 29.1664 21.6084H53.5914C69.1165 21.6084 78.7848 29.8016 75.2521 46.2812L74.8803 48.0502C71.1617 65.2747 62.1441 73.561 45.7824 73.561H38.1791C37.083 73.561 36.1357 74.3265 35.9056 75.3982L32.976 89.0414ZM45.7175 37.9018C44.6176 37.9018 43.6682 38.6724 43.4419 39.7488L40.3291 54.5571C40.0253 56.0022 41.128 57.3608 42.6047 57.3608H45.2246C49.9658 57.3608 53.3125 55.4986 54.9859 47.9571L55.2648 46.5606C56.6592 40.2294 54.5211 37.9018 49.501 37.9018H45.7175Z" fill="#0047FF"/>
<path d="M29.1664 22.8936H53.5912C61.1621 22.8936 67.0563 24.894 70.6381 28.6514C74.1772 32.3642 75.7015 38.053 73.9955 46.0117L73.9945 46.0166L73.6224 47.7861C71.7961 56.2413 68.7061 62.3259 64.2201 66.3037C59.7515 70.266 53.7409 72.2763 45.7826 72.2764H38.1791C36.4773 72.2764 35.0062 73.4642 34.6488 75.1279L31.7191 88.7715C31.6162 89.2509 31.1928 89.5937 30.7025 89.5938H15.4642C14.803 89.5938 14.3098 88.9847 14.4467 88.3379L28.1488 23.7178C28.2508 23.2372 28.6751 22.8936 29.1664 22.8936ZM45.7172 36.6162C44.0096 36.6164 42.5352 37.8133 42.184 39.4844L39.0717 54.293C38.6001 56.5366 40.3121 58.6455 42.6049 58.6455H45.225C47.7578 58.6455 50.1314 58.1478 52.0931 56.4619C54.0304 54.7969 55.3751 52.1359 56.2406 48.2354L56.2435 48.2227L56.2465 48.209L56.5199 46.8369C57.2364 43.584 57.1529 40.9438 55.8314 39.1064C54.4755 37.2215 52.1448 36.6163 49.5013 36.6162H45.7172Z" stroke="#030087" stroke-width="2.57019"/>
<path d="M17.9642 13.0247H42.389C49.96 13.0247 55.8541 15.0252 59.4359 18.7825C62.9751 22.4953 64.4994 28.1841 62.7933 36.1428L62.7924 36.1477L62.4203 37.9172C60.5939 46.3724 57.5039 52.4571 53.0179 56.4348C48.5493 60.3971 42.5388 62.4074 34.5804 62.4075H26.9769C25.2752 62.4075 23.8041 63.5953 23.4467 65.259L20.517 78.9026C20.414 79.382 19.9907 79.7248 19.5004 79.7249H4.26208C3.60087 79.7249 3.1076 79.1158 3.24451 78.469L16.9467 13.8489C17.0486 13.3683 17.473 13.0247 17.9642 13.0247Z" fill="white" stroke="#030087" stroke-width="2.57019"/>
<path d="M30.7327 31.9631C31.119 28.9634 33.9288 26.8317 37.0081 27.2025C40.0874 27.5735 42.0143 30.0302 41.6281 33.0299C41.3835 34.9293 40.27 36.5901 38.7043 37.459C38.0449 37.825 37.575 38.5406 37.7342 39.2777L39.1691 45.9255C39.3584 46.8027 38.6823 47.628 37.785 47.6149L30.0489 47.5028C28.9956 47.4875 28.3386 46.3551 28.848 45.4331L32.6974 38.4656C33.0601 37.8092 32.8222 36.9946 32.2907 36.4655C31.1363 35.3164 30.5112 33.6842 30.7327 31.9631Z" fill="#0047FF"/>
<path d="M133.661 25.3689H157.331C161.943 25.3689 165.892 26.0807 169.197 27.4802L169.201 27.4822C172.548 28.8762 175.121 30.9832 176.947 33.8025L176.951 33.8093L176.956 33.8162C178.825 36.5636 179.783 40.0285 179.783 44.2546C179.783 48.5411 178.824 52.0349 176.956 54.781L176.954 54.783C175.132 57.4866 172.56 59.5117 169.209 60.8513L169.207 60.8523C165.899 62.1969 161.946 62.8806 157.331 62.8806H145.014V83.1619C145.014 83.6347 144.87 83.9698 144.612 84.2283C144.353 84.4867 144.018 84.6306 143.544 84.6306H133.661C133.187 84.6306 132.851 84.4868 132.592 84.2283C132.334 83.9698 132.19 83.6346 132.19 83.1619V26.8376C132.19 26.365 132.334 26.0296 132.592 25.7712C132.851 25.5127 133.187 25.3689 133.661 25.3689ZM191.491 25.3689H215.161C219.773 25.3689 223.722 26.0808 227.027 27.4802L227.031 27.4822C230.378 28.8762 232.951 30.9832 234.777 33.8025L234.782 33.8093L234.786 33.8162C236.655 36.5636 237.613 40.0284 237.613 44.2546C237.613 48.5411 236.654 52.0349 234.786 54.781L234.785 54.783C232.963 57.4866 230.391 59.5117 227.041 60.8513L227.037 60.8523C223.729 62.197 219.776 62.8806 215.161 62.8806H202.845V83.1619C202.845 83.6346 202.701 83.9698 202.443 84.2283C202.184 84.4868 201.848 84.6306 201.375 84.6306H191.491C191.017 84.6306 190.682 84.4867 190.423 84.2283C190.165 83.9698 190.021 83.6347 190.021 83.1619V26.8376C190.021 26.365 190.165 26.0296 190.423 25.7712C190.682 25.5129 191.017 25.3689 191.491 25.3689ZM249.321 25.3689H272.992C277.604 25.3689 281.553 26.0808 284.858 27.4802L284.862 27.4822C288.209 28.8762 290.783 30.9832 292.608 33.8025L292.612 33.8093L292.617 33.8162C294.486 36.5636 295.444 40.0285 295.444 44.2546C295.444 48.5411 294.485 52.0349 292.617 54.781L292.615 54.783C290.793 57.4866 288.222 59.5117 284.871 60.8513L284.867 60.8523C281.559 62.1969 277.607 62.8806 272.992 62.8806H260.675V83.1619C260.675 83.6347 260.532 83.9698 260.273 84.2283C260.014 84.4867 259.679 84.6306 259.206 84.6306H249.321C248.848 84.6305 248.512 84.4867 248.253 84.2283C247.995 83.9698 247.851 83.6346 247.851 83.1619V26.8376C247.851 26.3649 247.995 26.0296 248.253 25.7712C248.512 25.5129 248.848 25.369 249.321 25.3689ZM307.152 25.3689H316.95C317.423 25.369 317.759 25.5128 318.017 25.7712C318.276 26.0296 318.419 26.365 318.419 26.8376V83.1619C318.419 83.6346 318.276 83.9698 318.017 84.2283C317.759 84.4867 317.423 84.6305 316.95 84.6306H307.152C306.678 84.6306 306.343 84.4867 306.084 84.2283C305.826 83.9698 305.682 83.6347 305.682 83.1619V26.8376C305.682 26.365 305.826 26.0297 306.084 25.7712C306.343 25.5129 306.679 25.3689 307.152 25.3689ZM144.754 53.531H156.897C159.949 53.531 162.415 52.7831 164.201 51.1951L164.202 51.196C166.076 49.5816 166.958 47.1939 166.958 44.1687C166.958 41.4841 166.161 39.2292 164.526 37.4646H164.527C162.894 35.6364 160.287 34.8055 156.897 34.8054H144.754V53.531ZM202.584 53.531H214.727C217.784 53.531 220.254 52.7809 222.041 51.1873C223.908 49.5729 224.789 47.189 224.789 44.1687C224.789 41.6475 224.086 39.5049 222.646 37.7917L222.348 37.4548C220.714 35.6335 218.111 34.8054 214.727 34.8054H202.584V53.531ZM260.416 53.531H272.558C275.61 53.531 278.077 52.7831 279.862 51.1951L279.863 51.196C281.737 49.5816 282.62 47.1939 282.62 44.1687C282.62 41.4842 281.822 39.2292 280.187 37.4646H280.188C278.555 35.6364 275.948 34.8055 272.558 34.8054H260.416V53.531Z" fill="#0F0E3C" stroke="#0F0E3C" stroke-width="1.3952"/>
</svg>
