<svg width="1892" height="782" viewBox="0 0 1892 782" fill="none" xmlns="http://www.w3.org/2000/svg">
<path d="M691.509 516.709C633.046 612.109 533.971 687.128 383.573 772.286C233.175 687.128 134.1 612.109 75.6372 516.709C17.4699 421.792 -1.17867 305.528 12.0528 136.27C172.782 98.1652 255.004 69.1052 383.573 8.83751C512.142 69.1052 594.364 98.1652 755.093 136.27C768.325 305.528 749.676 421.792 691.509 516.709Z" fill="#0047FF" stroke="#030087" stroke-width="16"/>
<path d="M564.354 721.202C564.153 722.119 563.34 722.773 562.401 722.773H459.938C458.66 722.773 457.71 721.591 457.984 720.343L566.521 226.708C566.723 225.791 567.535 225.138 568.474 225.138H670.938C672.215 225.138 673.165 226.319 672.891 227.567L564.354 721.202Z" fill="white" stroke="#030087" stroke-width="16"/>
<path d="M683.992 172.335C683.775 173.234 682.971 173.867 682.047 173.867H580.338C579.044 173.867 578.091 172.657 578.394 171.399L593.484 108.732C593.7 107.833 594.504 107.2 595.428 107.2H697.137C698.431 107.2 699.385 108.41 699.082 109.668L683.992 172.335Z" fill="white" stroke="#030087" stroke-width="16"/>
<path d="M305.181 722.875C304.191 727.483 300.118 730.773 295.405 730.773H173.355C166.997 730.773 162.253 724.917 163.573 718.697L264.03 245.407C265.01 240.787 269.089 237.483 273.812 237.483H453.247C563.913 237.483 632.831 295.83 607.649 413.185L604.998 425.782C578.492 548.442 514.213 607.451 397.583 607.451H338.07C333.357 607.451 329.283 610.742 328.293 615.349L305.181 722.875ZM391.782 353.513C387.052 353.513 382.97 356.826 381.996 361.454L357.047 480.026C355.739 486.241 360.481 492.085 366.832 492.085H393.607C427.403 492.085 451.259 478.824 463.187 425.119L465.175 415.174C475.115 370.088 459.874 353.513 424.09 353.513H391.782Z" fill="#030087"/>
<path d="M233.944 638.339C232.954 642.946 228.88 646.237 224.167 646.237H102.118C95.7593 646.237 91.0155 640.381 92.3357 634.161L192.792 160.871C193.773 156.251 197.852 152.947 202.575 152.947H382.01C492.676 152.947 561.593 211.293 536.412 328.649L533.761 341.246C507.254 463.906 442.975 522.915 326.346 522.915H266.832C262.119 522.915 258.046 526.206 257.056 530.813L233.944 638.339ZM320.544 268.977C315.815 268.977 311.732 272.29 310.759 276.917L285.809 395.49C284.502 401.705 289.244 407.549 295.595 407.549H322.37C356.166 407.549 380.022 394.288 391.95 340.583L393.938 330.638C403.878 285.552 388.637 268.977 352.852 268.977H320.544Z" fill="#0047FF"/>
<path d="M528.59 326.97L528.587 326.986L528.583 327.001L525.942 339.556C525.94 339.564 525.938 339.572 525.937 339.58C512.889 399.941 490.776 443.538 458.545 472.089C426.424 500.543 383.278 514.915 326.346 514.915H266.832C258.349 514.915 251.017 520.838 249.234 529.132L226.123 636.657C225.925 637.579 225.11 638.237 224.167 638.237H102.118C100.846 638.237 99.8973 637.066 100.161 635.822L200.618 162.532C200.814 161.608 201.63 160.947 202.575 160.947H382.01C436.153 160.947 478.533 175.238 504.366 202.312C529.932 229.107 540.805 270.045 528.59 326.97ZM399.76 342.318L399.778 342.235L399.795 342.151L401.768 332.282C406.839 309.231 406.145 290.881 397.034 278.226C387.7 265.261 371.574 260.977 352.852 260.977H320.544C312.032 260.977 304.683 266.94 302.93 275.27L277.981 393.842C275.627 405.03 284.163 415.549 295.595 415.549H322.37C340.278 415.549 356.879 412.032 370.572 400.275C384.112 388.649 393.616 369.979 399.76 342.318Z" stroke="#030087" stroke-width="16"/>
<path d="M448.738 256.69L448.735 256.706L448.732 256.721L446.09 269.276C446.088 269.284 446.087 269.292 446.085 269.3C433.038 329.661 410.924 373.258 378.693 401.809C346.573 430.263 303.427 444.634 246.494 444.634H186.981C178.497 444.634 171.165 450.558 169.383 458.852L146.271 566.377C146.073 567.299 145.258 567.957 144.316 567.957H22.2662C20.9945 567.957 20.0457 566.786 20.3098 565.542L120.767 92.2517C120.963 91.3278 121.778 90.667 122.723 90.667H302.158C356.302 90.667 398.681 104.958 424.514 132.032C450.08 158.826 460.953 199.764 448.738 256.69Z" fill="white" stroke="#030087" stroke-width="16"/>
<path fill-rule="evenodd" clip-rule="evenodd" d="M268.169 275.056C267.484 271.885 269.473 268.788 272.457 267.515C285.406 261.988 294.815 249.159 296.733 234.282C299.486 212.92 285.751 195.425 263.801 192.783C241.85 190.142 221.824 205.318 219.07 226.68C217.318 240.269 222.978 253.088 232.979 261.298C235.474 263.346 236.462 266.865 234.9 269.689L202.46 328.345C200.266 332.31 203.092 337.183 207.623 337.248L274.297 338.216C278.156 338.272 281.064 334.722 280.249 330.949L268.169 275.056Z" fill="#0047FF"/>
<mask id="path-9-inside-1_715_1222" fill="white">
<path d="M873.036 551.737C869.662 551.737 866.902 550.664 864.756 548.517C862.609 546.371 861.536 543.611 861.536 540.237V241.237C861.536 237.864 862.609 235.104 864.756 232.957C866.902 230.811 869.662 229.737 873.036 229.737H998.616C1023.46 229.737 1044.92 233.571 1063.02 241.237C1081.42 248.904 1095.68 260.557 1105.8 276.197C1116.22 291.531 1121.44 310.697 1121.44 333.697C1121.44 357.004 1116.22 376.324 1105.8 391.657C1095.68 406.684 1081.42 417.877 1063.02 425.237C1044.92 432.597 1023.46 436.277 998.616 436.277H936.976V540.237C936.976 543.611 935.902 546.371 933.756 548.517C931.609 550.664 928.849 551.737 925.476 551.737H873.036ZM935.596 379.237H996.316C1011.96 379.237 1024.07 375.404 1032.66 367.737C1041.55 360.071 1046 348.571 1046 333.237C1046 319.744 1042.01 308.704 1034.04 300.117C1026.37 291.531 1013.8 287.237 996.316 287.237H935.596V379.237ZM1179.85 551.737C1176.48 551.737 1173.72 550.664 1171.57 548.517C1169.43 546.371 1168.35 543.611 1168.35 540.237V241.237C1168.35 237.864 1169.43 235.104 1171.57 232.957C1173.72 230.811 1176.48 229.737 1179.85 229.737H1305.43C1330.27 229.737 1351.74 233.571 1369.83 241.237C1388.23 248.904 1402.49 260.557 1412.61 276.197C1423.04 291.531 1428.25 310.697 1428.25 333.697C1428.25 357.004 1423.04 376.324 1412.61 391.657C1402.49 406.684 1388.23 417.877 1369.83 425.237C1351.74 432.597 1330.27 436.277 1305.43 436.277H1243.79V540.237C1243.79 543.611 1242.72 546.371 1240.57 548.517C1238.43 550.664 1235.67 551.737 1232.29 551.737H1179.85ZM1242.41 379.237H1303.13C1318.77 379.237 1330.89 375.404 1339.47 367.737C1348.37 360.071 1352.81 348.571 1352.81 333.237C1352.81 319.744 1348.83 308.704 1340.85 300.117C1333.19 291.531 1320.61 287.237 1303.13 287.237H1242.41V379.237ZM1486.67 551.737C1483.3 551.737 1480.54 550.664 1478.39 548.517C1476.24 546.371 1475.17 543.611 1475.17 540.237V241.237C1475.17 237.864 1476.24 235.104 1478.39 232.957C1480.54 230.811 1483.3 229.737 1486.67 229.737H1612.25C1637.09 229.737 1658.56 233.571 1676.65 241.237C1695.05 248.904 1709.31 260.557 1719.43 276.197C1729.86 291.531 1735.07 310.697 1735.07 333.697C1735.07 357.004 1729.86 376.324 1719.43 391.657C1709.31 406.684 1695.05 417.877 1676.65 425.237C1658.56 432.597 1637.09 436.277 1612.25 436.277H1550.61V540.237C1550.61 543.611 1549.54 546.371 1547.39 548.517C1545.24 550.664 1542.48 551.737 1539.11 551.737H1486.67ZM1549.23 379.237H1609.95C1625.59 379.237 1637.7 375.404 1646.29 367.737C1655.18 360.071 1659.63 348.571 1659.63 333.237C1659.63 319.744 1655.64 308.704 1647.67 300.117C1640 291.531 1627.43 287.237 1609.95 287.237H1549.23V379.237ZM1793.48 551.737C1790.11 551.737 1787.35 550.664 1785.2 548.517C1783.06 546.371 1781.98 543.611 1781.98 540.237V241.237C1781.98 237.864 1783.06 235.104 1785.2 232.957C1787.35 230.811 1790.11 229.737 1793.48 229.737H1845.46C1848.84 229.737 1851.6 230.811 1853.74 232.957C1855.89 235.104 1856.96 237.864 1856.96 241.237V540.237C1856.96 543.611 1855.89 546.371 1853.74 548.517C1851.6 550.664 1848.84 551.737 1845.46 551.737H1793.48Z"/>
</mask>
<path d="M873.036 551.737C869.662 551.737 866.902 550.664 864.756 548.517C862.609 546.371 861.536 543.611 861.536 540.237V241.237C861.536 237.864 862.609 235.104 864.756 232.957C866.902 230.811 869.662 229.737 873.036 229.737H998.616C1023.46 229.737 1044.92 233.571 1063.02 241.237C1081.42 248.904 1095.68 260.557 1105.8 276.197C1116.22 291.531 1121.44 310.697 1121.44 333.697C1121.44 357.004 1116.22 376.324 1105.8 391.657C1095.68 406.684 1081.42 417.877 1063.02 425.237C1044.92 432.597 1023.46 436.277 998.616 436.277H936.976V540.237C936.976 543.611 935.902 546.371 933.756 548.517C931.609 550.664 928.849 551.737 925.476 551.737H873.036ZM935.596 379.237H996.316C1011.96 379.237 1024.07 375.404 1032.66 367.737C1041.55 360.071 1046 348.571 1046 333.237C1046 319.744 1042.01 308.704 1034.04 300.117C1026.37 291.531 1013.8 287.237 996.316 287.237H935.596V379.237ZM1179.85 551.737C1176.48 551.737 1173.72 550.664 1171.57 548.517C1169.43 546.371 1168.35 543.611 1168.35 540.237V241.237C1168.35 237.864 1169.43 235.104 1171.57 232.957C1173.72 230.811 1176.48 229.737 1179.85 229.737H1305.43C1330.27 229.737 1351.74 233.571 1369.83 241.237C1388.23 248.904 1402.49 260.557 1412.61 276.197C1423.04 291.531 1428.25 310.697 1428.25 333.697C1428.25 357.004 1423.04 376.324 1412.61 391.657C1402.49 406.684 1388.23 417.877 1369.83 425.237C1351.74 432.597 1330.27 436.277 1305.43 436.277H1243.79V540.237C1243.79 543.611 1242.72 546.371 1240.57 548.517C1238.43 550.664 1235.67 551.737 1232.29 551.737H1179.85ZM1242.41 379.237H1303.13C1318.77 379.237 1330.89 375.404 1339.47 367.737C1348.37 360.071 1352.81 348.571 1352.81 333.237C1352.81 319.744 1348.83 308.704 1340.85 300.117C1333.19 291.531 1320.61 287.237 1303.13 287.237H1242.41V379.237ZM1486.67 551.737C1483.3 551.737 1480.54 550.664 1478.39 548.517C1476.24 546.371 1475.17 543.611 1475.17 540.237V241.237C1475.17 237.864 1476.24 235.104 1478.39 232.957C1480.54 230.811 1483.3 229.737 1486.67 229.737H1612.25C1637.09 229.737 1658.56 233.571 1676.65 241.237C1695.05 248.904 1709.31 260.557 1719.43 276.197C1729.86 291.531 1735.07 310.697 1735.07 333.697C1735.07 357.004 1729.86 376.324 1719.43 391.657C1709.31 406.684 1695.05 417.877 1676.65 425.237C1658.56 432.597 1637.09 436.277 1612.25 436.277H1550.61V540.237C1550.61 543.611 1549.54 546.371 1547.39 548.517C1545.24 550.664 1542.48 551.737 1539.11 551.737H1486.67ZM1549.23 379.237H1609.95C1625.59 379.237 1637.7 375.404 1646.29 367.737C1655.18 360.071 1659.63 348.571 1659.63 333.237C1659.63 319.744 1655.64 308.704 1647.67 300.117C1640 291.531 1627.43 287.237 1609.95 287.237H1549.23V379.237ZM1793.48 551.737C1790.11 551.737 1787.35 550.664 1785.2 548.517C1783.06 546.371 1781.98 543.611 1781.98 540.237V241.237C1781.98 237.864 1783.06 235.104 1785.2 232.957C1787.35 230.811 1790.11 229.737 1793.48 229.737H1845.46C1848.84 229.737 1851.6 230.811 1853.74 232.957C1855.89 235.104 1856.96 237.864 1856.96 241.237V540.237C1856.96 543.611 1855.89 546.371 1853.74 548.517C1851.6 550.664 1848.84 551.737 1845.46 551.737H1793.48Z" fill="#030087"/>
<path d="M864.756 548.517L860.513 552.76L864.756 548.517ZM864.756 232.957L868.998 237.2L868.998 237.2L864.756 232.957ZM1063.02 241.237L1060.67 246.762L1060.69 246.769L1060.71 246.776L1063.02 241.237ZM1105.8 276.197L1100.76 279.457L1100.8 279.514L1100.83 279.571L1105.8 276.197ZM1105.8 391.657L1100.83 388.283L1100.83 388.295L1100.82 388.306L1105.8 391.657ZM1063.02 425.237L1060.79 419.666L1060.77 419.673L1060.75 419.68L1063.02 425.237ZM936.976 436.277V430.277H930.976V436.277H936.976ZM935.596 379.237H929.596V385.237H935.596V379.237ZM1032.66 367.737L1028.74 363.193L1028.7 363.227L1028.66 363.262L1032.66 367.737ZM1034.04 300.117L1029.56 304.113L1029.6 304.157L1029.64 304.2L1034.04 300.117ZM935.596 287.237V281.237H929.596V287.237H935.596ZM873.036 545.737C871.06 545.737 869.89 545.166 868.998 544.275L860.513 552.76C863.915 556.162 868.265 557.737 873.036 557.737V545.737ZM868.998 544.275C868.107 543.383 867.536 542.213 867.536 540.237H855.536C855.536 545.008 857.111 549.358 860.513 552.76L868.998 544.275ZM867.536 540.237V241.237H855.536V540.237H867.536ZM867.536 241.237C867.536 239.261 868.107 238.091 868.998 237.2L860.513 228.715C857.111 232.117 855.536 236.466 855.536 241.237H867.536ZM868.998 237.2C869.89 236.308 871.06 235.737 873.036 235.737V223.737C868.265 223.737 863.915 225.313 860.513 228.715L868.998 237.2ZM873.036 235.737H998.616V223.737H873.036V235.737ZM998.616 235.737C1022.86 235.737 1043.49 239.48 1060.67 246.762L1065.36 235.713C1046.35 227.661 1024.06 223.737 998.616 223.737V235.737ZM1060.71 246.776C1078.07 254.01 1091.34 264.907 1100.76 279.457L1110.83 272.938C1100.01 256.207 1084.76 243.797 1065.32 235.699L1060.71 246.776ZM1100.83 279.571C1110.44 293.693 1115.44 311.609 1115.44 333.697H1127.44C1127.44 309.785 1122.01 289.368 1110.76 272.823L1100.83 279.571ZM1115.44 333.697C1115.44 356.11 1110.43 374.174 1100.83 388.283L1110.76 395.031C1122.02 378.474 1127.44 357.897 1127.44 333.697H1115.44ZM1100.82 388.306C1091.43 402.24 1078.18 412.71 1060.79 419.666L1065.24 430.808C1084.65 423.045 1099.92 411.128 1110.77 395.009L1100.82 388.306ZM1060.75 419.68C1043.55 426.68 1022.88 430.277 998.616 430.277V442.277C1024.03 442.277 1046.3 438.515 1065.28 430.795L1060.75 419.68ZM998.616 430.277H936.976V442.277H998.616V430.277ZM930.976 436.277V540.237H942.976V436.277H930.976ZM930.976 540.237C930.976 542.213 930.404 543.383 929.513 544.275L937.998 552.76C941.4 549.358 942.976 545.008 942.976 540.237H930.976ZM929.513 544.275C928.622 545.166 927.451 545.737 925.476 545.737V557.737C930.246 557.737 934.596 556.162 937.998 552.76L929.513 544.275ZM925.476 545.737H873.036V557.737H925.476V545.737ZM935.596 385.237H996.316V373.237H935.596V385.237ZM996.316 385.237C1012.9 385.237 1026.62 381.166 1036.65 372.213L1028.66 363.262C1021.51 369.641 1011.02 373.237 996.316 373.237V385.237ZM1036.57 372.282C1047.17 363.15 1052 349.747 1052 333.237H1040C1040 347.394 1035.93 356.991 1028.74 363.193L1036.57 372.282ZM1052 333.237C1052 318.475 1047.59 305.899 1038.43 296.035L1029.64 304.2C1036.43 311.509 1040 321.012 1040 333.237H1052ZM1038.51 296.121C1029.23 285.721 1014.62 281.237 996.316 281.237V293.237C1012.97 293.237 1023.51 297.34 1029.56 304.113L1038.51 296.121ZM996.316 281.237H935.596V293.237H996.316V281.237ZM929.596 287.237V379.237H941.596V287.237H929.596ZM1171.57 548.517L1167.33 552.76L1171.57 548.517ZM1171.57 232.957L1175.81 237.2L1175.81 237.2L1171.57 232.957ZM1369.83 241.237L1367.49 246.762L1367.51 246.769L1367.52 246.776L1369.83 241.237ZM1412.61 276.197L1407.57 279.457L1407.61 279.514L1407.65 279.571L1412.61 276.197ZM1412.61 391.657L1407.65 388.283L1407.64 388.295L1407.64 388.306L1412.61 391.657ZM1369.83 425.237L1367.6 419.666L1367.59 419.673L1367.57 419.68L1369.83 425.237ZM1243.79 436.277V430.277H1237.79V436.277H1243.79ZM1242.41 379.237H1236.41V385.237H1242.41V379.237ZM1339.47 367.737L1335.55 363.193L1335.51 363.227L1335.48 363.262L1339.47 367.737ZM1340.85 300.117L1336.38 304.113L1336.42 304.157L1336.46 304.2L1340.85 300.117ZM1242.41 287.237V281.237H1236.41V287.237H1242.41ZM1179.85 545.737C1177.88 545.737 1176.71 545.166 1175.81 544.275L1167.33 552.76C1170.73 556.162 1175.08 557.737 1179.85 557.737V545.737ZM1175.81 544.275C1174.92 543.383 1174.35 542.213 1174.35 540.237H1162.35C1162.35 545.008 1163.93 549.358 1167.33 552.76L1175.81 544.275ZM1174.35 540.237V241.237H1162.35V540.237H1174.35ZM1174.35 241.237C1174.35 239.261 1174.92 238.091 1175.81 237.2L1167.33 228.715C1163.93 232.117 1162.35 236.466 1162.35 241.237H1174.35ZM1175.81 237.2C1176.71 236.308 1177.88 235.737 1179.85 235.737V223.737C1175.08 223.737 1170.73 225.313 1167.33 228.715L1175.81 237.2ZM1179.85 235.737H1305.43V223.737H1179.85V235.737ZM1305.43 235.737C1329.67 235.737 1350.31 239.48 1367.49 246.762L1372.17 235.713C1353.17 227.661 1330.87 223.737 1305.43 223.737V235.737ZM1367.52 246.776C1384.89 254.01 1398.16 264.907 1407.57 279.457L1417.65 272.938C1406.82 256.207 1391.58 243.797 1372.14 235.699L1367.52 246.776ZM1407.65 279.571C1417.25 293.693 1422.25 311.609 1422.25 333.697H1434.25C1434.25 309.785 1428.82 289.368 1417.57 272.823L1407.65 279.571ZM1422.25 333.697C1422.25 356.11 1417.25 374.174 1407.65 388.283L1417.57 395.031C1428.83 378.474 1434.25 357.897 1434.25 333.697H1422.25ZM1407.64 388.306C1398.25 402.24 1385 412.71 1367.6 419.666L1372.06 430.808C1391.47 423.045 1406.73 411.128 1417.59 395.009L1407.64 388.306ZM1367.57 419.68C1350.36 426.68 1329.7 430.277 1305.43 430.277V442.277C1330.85 442.277 1353.12 438.515 1372.09 430.795L1367.57 419.68ZM1305.43 430.277H1243.79V442.277H1305.43V430.277ZM1237.79 436.277V540.237H1249.79V436.277H1237.79ZM1237.79 540.237C1237.79 542.213 1237.22 543.383 1236.33 544.275L1244.81 552.76C1248.22 549.358 1249.79 545.008 1249.79 540.237H1237.79ZM1236.33 544.275C1235.44 545.166 1234.27 545.737 1232.29 545.737V557.737C1237.06 557.737 1241.41 556.162 1244.81 552.76L1236.33 544.275ZM1232.29 545.737H1179.85V557.737H1232.29V545.737ZM1242.41 385.237H1303.13V373.237H1242.41V385.237ZM1303.13 385.237C1319.71 385.237 1333.44 381.166 1343.47 372.213L1335.48 363.262C1328.33 369.641 1317.83 373.237 1303.13 373.237V385.237ZM1343.39 372.282C1353.98 363.15 1358.81 349.747 1358.81 333.237H1346.81C1346.81 347.394 1342.75 356.991 1335.55 363.193L1343.39 372.282ZM1358.81 333.237C1358.81 318.475 1354.41 305.899 1345.25 296.035L1336.46 304.2C1343.24 311.509 1346.81 321.012 1346.81 333.237H1358.81ZM1345.33 296.121C1336.04 285.721 1321.43 281.237 1303.13 281.237V293.237C1319.79 293.237 1330.33 297.34 1336.38 304.113L1345.33 296.121ZM1303.13 281.237H1242.41V293.237H1303.13V281.237ZM1236.41 287.237V379.237H1248.41V287.237H1236.41ZM1478.39 548.517L1474.15 552.76L1478.39 548.517ZM1478.39 232.957L1482.63 237.2V237.2L1478.39 232.957ZM1676.65 241.237L1674.31 246.762L1674.32 246.769L1674.34 246.776L1676.65 241.237ZM1719.43 276.197L1714.39 279.457L1714.43 279.514L1714.47 279.571L1719.43 276.197ZM1719.43 391.657L1714.47 388.283L1714.46 388.295L1714.45 388.306L1719.43 391.657ZM1676.65 425.237L1674.42 419.666L1674.4 419.673L1674.39 419.68L1676.65 425.237ZM1550.61 436.277V430.277H1544.61V436.277H1550.61ZM1549.23 379.237H1543.23V385.237H1549.23V379.237ZM1646.29 367.737L1642.37 363.193L1642.33 363.227L1642.29 363.262L1646.29 367.737ZM1647.67 300.117L1643.19 304.113L1643.23 304.157L1643.27 304.2L1647.67 300.117ZM1549.23 287.237V281.237H1543.23V287.237H1549.23ZM1486.67 545.737C1484.69 545.737 1483.52 545.166 1482.63 544.275L1474.15 552.76C1477.55 556.162 1481.9 557.737 1486.67 557.737V545.737ZM1482.63 544.275C1481.74 543.383 1481.17 542.213 1481.17 540.237H1469.17C1469.17 545.008 1470.74 549.358 1474.15 552.76L1482.63 544.275ZM1481.17 540.237V241.237H1469.17V540.237H1481.17ZM1481.17 241.237C1481.17 239.261 1481.74 238.091 1482.63 237.2L1474.15 228.715C1470.74 232.117 1469.17 236.466 1469.17 241.237H1481.17ZM1482.63 237.2C1483.52 236.308 1484.69 235.737 1486.67 235.737V223.737C1481.9 223.737 1477.55 225.313 1474.15 228.715L1482.63 237.2ZM1486.67 235.737H1612.25V223.737H1486.67V235.737ZM1612.25 235.737C1636.49 235.737 1657.12 239.48 1674.31 246.762L1678.99 235.713C1659.99 227.661 1637.69 223.737 1612.25 223.737V235.737ZM1674.34 246.776C1691.7 254.01 1704.98 264.907 1714.39 279.457L1724.47 272.938C1713.64 256.207 1698.39 243.797 1678.96 235.699L1674.34 246.776ZM1714.47 279.571C1724.07 293.693 1729.07 311.609 1729.07 333.697H1741.07C1741.07 309.785 1735.64 289.368 1724.39 272.823L1714.47 279.571ZM1729.07 333.697C1729.07 356.11 1724.06 374.174 1714.47 388.283L1724.39 395.031C1735.65 378.474 1741.07 357.897 1741.07 333.697H1729.07ZM1714.45 388.306C1705.07 402.24 1691.81 412.71 1674.42 419.666L1678.88 430.808C1698.29 423.045 1713.55 411.128 1724.41 395.009L1714.45 388.306ZM1674.39 419.68C1657.18 426.68 1636.52 430.277 1612.25 430.277V442.277C1637.66 442.277 1659.93 438.515 1678.91 430.795L1674.39 419.68ZM1612.25 430.277H1550.61V442.277H1612.25V430.277ZM1544.61 436.277V540.237H1556.61V436.277H1544.61ZM1544.61 540.237C1544.61 542.213 1544.04 543.383 1543.15 544.275L1551.63 552.76C1555.03 549.358 1556.61 545.008 1556.61 540.237H1544.61ZM1543.15 544.275C1542.25 545.166 1541.08 545.737 1539.11 545.737V557.737C1543.88 557.737 1548.23 556.162 1551.63 552.76L1543.15 544.275ZM1539.11 545.737H1486.67V557.737H1539.11V545.737ZM1549.23 385.237H1609.95V373.237H1549.23V385.237ZM1609.95 385.237C1626.53 385.237 1640.26 381.166 1650.28 372.213L1642.29 363.262C1635.15 369.641 1624.65 373.237 1609.95 373.237V385.237ZM1650.21 372.282C1660.8 363.15 1665.63 349.747 1665.63 333.237H1653.63C1653.63 347.394 1649.56 356.991 1642.37 363.193L1650.21 372.282ZM1665.63 333.237C1665.63 318.475 1661.23 305.899 1652.07 296.035L1643.27 304.2C1650.06 311.509 1653.63 321.012 1653.63 333.237H1665.63ZM1652.14 296.121C1642.86 285.721 1628.25 281.237 1609.95 281.237V293.237C1626.61 293.237 1637.15 297.34 1643.19 304.113L1652.14 296.121ZM1609.95 281.237H1549.23V293.237H1609.95V281.237ZM1543.23 287.237V379.237H1555.23V287.237H1543.23ZM1785.2 548.517L1780.96 552.76L1785.2 548.517ZM1785.2 232.957L1789.45 237.2V237.2L1785.2 232.957ZM1853.74 232.957L1849.5 237.2V237.2L1853.74 232.957ZM1853.74 548.517L1849.5 544.275L1853.74 548.517ZM1793.48 545.737C1791.51 545.737 1790.34 545.166 1789.45 544.275L1780.96 552.76C1784.36 556.162 1788.71 557.737 1793.48 557.737V545.737ZM1789.45 544.275C1788.56 543.383 1787.98 542.213 1787.98 540.237H1775.98C1775.98 545.008 1777.56 549.358 1780.96 552.76L1789.45 544.275ZM1787.98 540.237V241.237H1775.98V540.237H1787.98ZM1787.98 241.237C1787.98 239.261 1788.56 238.091 1789.45 237.2L1780.96 228.715C1777.56 232.117 1775.98 236.466 1775.98 241.237H1787.98ZM1789.45 237.2C1790.34 236.308 1791.51 235.737 1793.48 235.737V223.737C1788.71 223.737 1784.36 225.313 1780.96 228.715L1789.45 237.2ZM1793.48 235.737H1845.46V223.737H1793.48V235.737ZM1845.46 235.737C1847.44 235.737 1848.61 236.308 1849.5 237.2L1857.99 228.715C1854.59 225.313 1850.24 223.737 1845.46 223.737V235.737ZM1849.5 237.2C1850.39 238.091 1850.96 239.261 1850.96 241.237H1862.96C1862.96 236.466 1861.39 232.117 1857.99 228.715L1849.5 237.2ZM1850.96 241.237V540.237H1862.96V241.237H1850.96ZM1850.96 540.237C1850.96 542.213 1850.39 543.383 1849.5 544.275L1857.99 552.76C1861.39 549.358 1862.96 545.008 1862.96 540.237H1850.96ZM1849.5 544.275C1848.61 545.166 1847.44 545.737 1845.46 545.737V557.737C1850.24 557.737 1854.59 556.162 1857.99 552.76L1849.5 544.275ZM1845.46 545.737H1793.48V557.737H1845.46V545.737Z" fill="#030087" mask="url(#path-9-inside-1_715_1222)"/>
</svg>

