<svg width="161" height="24" viewBox="0 0 161 24" fill="none" xmlns="http://www.w3.org/2000/svg">
<path d="M11.75 0L4.6117 2.69388L0.75 9.06122L1.2181 16.4082L5.43085 21.7959L11.633 24H11.75L18.1861 21.6735L22.3989 16.2857L22.75 8.93878L18.8883 2.69388L11.75 0ZM11.75 0.367347L14.2074 2.69388H11.75V0.367347ZM12.1011 0.367347L18.1861 2.57143L14.5585 2.69388L12.1011 0.367347ZM11.2819 0.367347L8.94148 2.69388H5.31384L11.2819 0.367347ZM11.633 0.489796V2.69388H9.29255L11.633 0.489796ZM14.7925 2.93878L18.6543 2.81633L16.8989 4.28571C16.7819 4.40816 16.7819 4.53061 16.6649 4.53061L14.7925 2.93878ZM11.984 2.93878H14.4415L16.4308 4.77551C16.4308 4.77551 16.4309 4.77551 16.3138 4.89796H14.0904L11.984 2.93878ZM6.95212 4.77551L8.94148 2.93878H11.516L9.40958 4.89796H7.06915C7.06915 4.89796 7.06915 4.77551 6.95212 4.77551ZM6.36702 4.16326L4.96277 2.93878H8.70744L6.83511 4.65306C6.71809 4.53061 6.48404 4.28571 6.36702 4.16326ZM11.75 4.77551V3.06122L13.7394 4.89796H12.1011C11.984 4.89796 11.867 4.77551 11.75 4.77551ZM17.25 4.40816L18.7713 3.06122L19.5904 5.87755C18.7713 5.38776 17.9521 4.89796 17.25 4.40816ZM4.84574 3.06122L6.13298 4.28571C5.31383 4.89796 4.49468 5.38775 3.67553 6L4.84574 3.06122ZM11.633 3.18367V4.77551C11.5159 4.77551 11.3989 4.89796 11.2819 4.89796H9.76064L11.633 3.18367ZM19.7074 6.73469L19.9415 6L19.1223 3.55102L22.1649 8.57143L19.7074 6.73469ZM4.37766 3.55102L3.44149 6.12245L3.67553 6.97959L1.33511 8.57143L4.37766 3.55102ZM14.3245 5.14286H16.0798C15.8457 5.38775 15.4947 5.7551 15.2606 6L14.3245 5.14286ZM12.8032 5.14286H13.9734L14.6755 5.87755C14.0904 5.63265 13.5053 5.38775 12.8032 5.14286ZM9.52659 5.14286H10.5798C10.1117 5.38775 9.52659 5.5102 8.94148 5.7551L9.52659 5.14286ZM7.42022 5.14286H9.17554L8.4734 5.87755C8.35638 5.87755 8.35639 5.87755 8.23937 6C8.00532 5.63265 7.65426 5.38775 7.42022 5.14286ZM6.71809 17.8776C6.60106 17.7551 6.60107 17.7551 6.48405 17.6327C5.54788 16.7755 4.6117 15.9184 3.67553 15.0612C4.02659 13.3469 4.37767 11.6327 4.72873 9.79592C4.84575 9.67347 4.84575 9.67347 4.96277 9.55102C6.13298 8.44898 7.30319 7.34694 8.4734 6.2449C8.94149 6.12245 9.40957 5.87755 9.87765 5.7551C9.99468 5.7551 10.1117 5.63265 10.2287 5.63265C10.6968 5.5102 11.1649 5.26531 11.516 5.14286C11.633 5.14286 11.75 5.14286 11.867 5.14286C12.9202 5.63265 14.0904 6 15.1436 6.36735C16.3138 7.34694 17.367 8.44898 18.5372 9.42857C18.6543 9.55102 18.6542 9.67347 18.7713 9.79592C19.1223 11.6327 19.3564 13.3469 19.7074 15.1837L17.0159 17.6327C16.8989 17.6327 16.8989 17.7551 16.7819 17.7551C15.1436 18.4898 13.3883 19.2245 11.75 19.8367C10.1117 19.2245 8.4734 18.4898 6.71809 17.8776ZM19.7074 6.97959L22.2819 8.93878C21.8138 9.06122 21.3457 9.18367 20.7606 9.30612C20.2925 9.30612 19.7074 9.42857 19.1223 9.55102L19.7074 6.97959ZM2.62235 9.30612C2.15426 9.18367 1.68618 9.06122 1.2181 9.06122L3.67553 7.22449L4.26063 9.42857C3.67553 9.42857 3.20745 9.42857 2.62235 9.30612ZM19.2394 9.79592C19.7074 9.67347 20.2925 9.55102 20.8777 9.42857C21.3457 9.42857 21.9308 9.30612 22.3989 9.18367L20.8777 13.102L19.2394 9.79592ZM1.10107 9.18367C1.56915 9.30612 2.03723 9.42857 2.50532 9.55102C3.09042 9.67347 3.67553 9.67347 4.26063 9.67347L2.62235 13.2245L1.10107 9.18367ZM20.9947 13.3469L22.5159 9.67347L22.1649 15.7959L20.9947 13.3469ZM1.10107 9.79592L2.50532 13.4694L1.33511 15.9184L1.10107 9.79592ZM2.73937 13.4694L4.37766 10.1633C4.0266 11.7551 3.67554 13.3469 3.32448 14.9388L2.73937 13.4694ZM19.1223 10.1633L20.7606 13.3469L20.0585 14.9388C19.7074 13.3469 19.4734 11.7551 19.1223 10.1633ZM20.1755 15.3061L20.8777 13.5918L22.1649 16.1633L19.5904 17.8776L20.1755 15.3061ZM1.45213 16.2857L2.62235 13.7143L3.20745 15.1837L4.0266 17.8776L1.45213 16.2857ZM3.55852 15.4286C4.49469 16.2857 5.43085 17.1429 6.36702 18L4.26063 18.1224L3.55852 15.4286ZM17.133 17.8776C18.0691 17.1429 19.0053 16.2857 19.8245 15.4286L19.2394 18L17.133 17.8776ZM19.4734 18.2449L21.8138 16.7755L18.5372 20.9388L19.4734 18.2449ZM1.8032 16.7755L4.14362 18.2449L5.0798 21.0612L1.8032 16.7755ZM11.984 21.0612L17.0159 18.1224L19.0053 18.2449L14.7925 21.551L11.984 21.0612ZM4.6117 18.2449H6.48405L11.3989 21.0612L8.82447 21.551L4.6117 18.2449ZM19.1223 18.4898L18.0692 21.551H15.1436L19.1223 18.4898ZM15.9628 18.4898L11.75 20.8163V20.2041C13.1543 19.5918 14.5585 19.102 15.9628 18.4898ZM7.42022 18.4898C8.82447 19.102 10.2287 19.5918 11.633 20.2041V20.8163L7.42022 18.4898ZM4.49469 18.4898L8.4734 21.551H5.54787L4.49469 18.4898ZM11.75 21.1837L14.5585 21.6735L11.75 23.6327V21.1837ZM9.05851 21.6735L11.633 21.1837V23.6327L9.05851 21.6735ZM14.9096 21.7959H17.484L12.3351 23.5102L14.9096 21.7959ZM6.13298 21.7959H8.70744L11.1649 23.5102L6.13298 21.7959ZM13.9734 10.0408C13.8564 10.1633 13.6223 10.2857 13.5053 10.5306C13.1542 10.898 13.0372 11.3878 13.0372 11.7551C13.0372 11.8776 13.0372 12.1224 13.1542 12.6122C13.1542 12.7347 13.2713 13.2245 13.5053 13.7143C13.7393 13.9592 13.9734 14.2041 14.2074 14.3265C14.2074 14.3265 14.9096 14.9388 15.8457 14.9388C16.3138 15.0612 16.6649 14.8163 16.6649 14.8163C16.6649 14.8163 16.8989 14.6939 17.0159 14.5714C17.484 13.9592 17.25 13.102 17.133 12.4898C17.0159 12 16.8989 11.2653 16.4308 10.7755C16.1968 10.4082 15.9628 10.2857 15.9628 10.1633C15.8457 10.1633 15.4947 9.91837 15.1436 9.91837C15.0266 9.91837 14.9096 9.91837 14.6755 9.91837C14.4415 9.91837 14.2075 9.91837 13.9734 10.0408ZM8.23937 9.91837C7.77128 10.0408 7.53724 10.1633 7.42022 10.2857C7.3032 10.2857 7.18618 10.4082 6.83511 10.7755C6.48405 11.3878 6.36703 12 6.25001 12.4898C6.13299 13.102 5.89893 14.0816 6.36702 14.5714C6.48404 14.6939 6.71809 14.8163 6.71809 14.8163C6.71809 14.9388 7.06915 15.0612 7.53723 15.0612C8.4734 14.9388 9.17554 14.3265 9.17554 14.3265C9.40958 14.2041 9.64361 13.9592 9.87765 13.7143C10.1117 13.2245 10.2287 12.7347 10.2287 12.6122C10.3457 12.2449 10.3457 11.8776 10.3457 11.7551C10.2287 11.3878 10.2287 10.898 9.87765 10.5306C9.76063 10.2857 9.5266 10.1633 9.40958 10.0408C9.17553 9.91837 8.82447 9.91837 8.59043 9.91837C8.47341 9.91837 8.35639 9.91837 8.23937 9.91837ZM9.40958 14.8163C9.29255 14.9388 9.40958 15.0612 9.76064 15.4286C10.3457 16.2857 11.0479 16.7755 11.516 17.0204C11.516 17.0204 11.5159 17.0204 11.633 17.0204C11.633 17.1429 11.633 17.1429 11.633 17.2653C11.0479 17.3878 10.5798 17.6327 9.99468 17.7551L8.59043 16.7755C8.47341 16.898 8.4734 17.0204 8.35638 17.0204C8.94148 17.5102 9.52659 17.8776 10.1117 18.2449C10.2287 18.3673 10.3457 18.4898 10.3457 18.4898C11.2819 18.4898 12.2181 18.4898 13.0372 18.4898C13.1542 18.4898 13.2713 18.3673 13.2713 18.3673C13.8564 17.8776 14.4415 17.5102 15.0266 17.1429L14.9096 16.7755C14.4415 17.1429 13.9734 17.5102 13.5053 17.7551C12.9202 17.6327 12.4521 17.3878 11.867 17.2653C11.867 17.1429 11.867 17.1429 11.867 17.0204C12.3351 16.7755 12.6862 16.5306 12.9202 16.2857C13.0372 16.1633 13.3883 15.7959 13.7394 15.4286C13.9734 15.0612 14.0904 14.9388 13.9734 14.8163C13.8564 14.5714 13.0372 15.0612 11.75 15.0612C10.6968 15.0612 9.87765 14.6939 9.52659 14.6939C9.40957 14.6939 9.40958 14.6939 9.40958 14.8163ZM10.2287 18C10.8138 17.8776 11.2819 17.7551 11.75 17.5102L13.1542 18C13.1542 18.1224 13.0372 18.1224 12.9202 18.2449C12.101 18.2449 11.3989 18.2449 10.5798 18.2449L10.2287 18Z" fill="#2A1309"/>
<path d="M126.277 3.44211L120.823 18.0316L115.368 3.44211H111.223V3.66316H112.095C112.314 3.66316 112.532 3.88421 112.75 4.10526C112.968 4.10526 112.968 4.10526 113.186 4.32631C113.405 4.54737 113.405 4.54737 113.405 4.76842C113.623 4.76842 113.623 4.98947 113.623 4.98947L112.968 18.0316C112.968 18.6947 112.75 19.3579 112.75 19.5789C112.75 20.0211 112.532 20.4632 112.095 20.6842C111.877 20.9053 111.441 21.1263 110.786 21.1263V21.3474H115.368V21.1263C114.714 20.9053 114.495 20.9053 114.277 20.6842C113.841 20.4632 113.841 20.2421 113.623 19.8C113.405 19.5789 113.405 18.9158 113.405 18.2526L114.059 5.65263H114.277L119.95 21.3474L126.277 4.98947L126.932 18.6947C126.932 19.5789 126.932 20.0211 126.495 20.4632C126.277 20.6842 125.841 20.9053 124.968 21.1263V21.3474H130.641V21.1263C129.986 21.1263 129.332 20.9053 129.114 20.4632C128.895 20.0211 128.677 19.579 128.677 18.9158L128.023 5.87368V5.65263C128.241 5.21053 128.241 4.76842 128.241 4.54737C128.241 4.32632 128.459 4.32632 128.677 4.10526C128.895 3.88421 129.114 3.88421 129.332 3.66316H129.986V3.44211H126.277Z" fill="#2A1309"/>
<path d="M126.277 3.44211L120.823 18.0316L115.368 3.44211H111.223V3.66316H112.095C112.314 3.66316 112.532 3.88421 112.75 4.10526C112.968 4.10526 112.968 4.10526 113.186 4.32631C113.405 4.54737 113.405 4.54737 113.405 4.76842C113.623 4.76842 113.623 4.98947 113.623 4.98947L112.968 18.0316C112.968 18.6947 112.75 19.3579 112.75 19.5789C112.75 20.0211 112.532 20.4632 112.095 20.6842C111.877 20.9053 111.441 21.1263 110.786 21.1263V21.3474H115.368V21.1263C114.714 20.9053 114.495 20.9053 114.277 20.6842C113.841 20.4632 113.841 20.2421 113.623 19.8C113.405 19.5789 113.405 18.9158 113.405 18.2526L114.059 5.65263H114.277L119.95 21.3474L126.277 4.98947L126.932 18.6947C126.932 19.5789 126.932 20.0211 126.495 20.4632C126.277 20.6842 125.841 20.9053 124.968 21.1263V21.3474H130.641V21.1263C129.986 21.1263 129.332 20.9053 129.114 20.4632C128.895 20.0211 128.677 19.579 128.677 18.9158L128.023 5.87368V5.65263C128.241 5.21053 128.241 4.76842 128.241 4.54737C128.241 4.32632 128.459 4.32632 128.677 4.10526C128.895 3.88421 129.114 3.88421 129.332 3.66316H129.986V3.44211H126.277Z" fill="black" fill-opacity="0.2"/>
<path fill-rule="evenodd" clip-rule="evenodd" d="M148.382 3.09326C148.423 3.12435 148.477 3.16579 148.532 3.22105C149.186 3.66316 149.841 4.10526 149.841 4.54737V4.76842C148.532 6.53684 145.259 9.18947 142.205 10.5158C141.768 10.5158 141.768 10.7368 141.768 10.7368C142.423 10.7368 147.223 8.96842 149.841 6.53684C151.805 7.2 155.95 8.96842 156.823 9.41053H157.259C157.695 9.41053 157.914 9.41053 157.914 9.18947C157.914 8.96842 157.695 8.52631 157.259 8.30526C155.717 7.45303 155.166 7.42221 154.621 7.39177C154.319 7.37484 154.018 7.35803 153.55 7.2C153.086 7.04338 152.65 6.91451 152.241 6.79372C151.495 6.57354 150.841 6.38023 150.277 6.09474C150.714 5.65263 151.805 4.54737 151.805 4.32631C151.805 4.1897 151.721 4.13752 151.606 4.0654C151.535 4.02083 151.451 3.96865 151.368 3.88421C150.495 3.44211 149.623 3 148.75 3C148.432 3 148.32 3 148.314 3.02541C148.311 3.03919 148.339 3.06046 148.382 3.09326ZM101.186 3.22105L96.1682 18.4737C95.95 19.3579 95.7318 20.0211 95.2954 20.4632C95.15 20.6105 94.8106 20.7579 94.4712 20.9053C94.3015 20.9789 94.1318 21.0526 93.9863 21.1263V21.3474H98.1318V21.1263C97.8762 21.1263 97.6206 21.0505 97.4088 20.9876C97.2591 20.9432 97.1313 20.9053 97.0409 20.9053C96.8227 20.6842 96.6046 20.2421 96.6046 19.8C96.6046 19.5789 96.6591 19.3579 96.7136 19.1368C96.7682 18.9158 96.8227 18.6947 96.8227 18.4737L98.35 14.0526H104.459L105.986 18.6947V18.9158C106.205 19.3579 106.205 19.8 106.205 20.0211C106.205 20.4632 105.986 20.6842 105.768 20.9053C105.678 20.9053 105.513 20.9432 105.319 20.9876C105.045 21.0505 104.715 21.1263 104.459 21.1263V21.3474H110.132V21.1263C109.876 21.1263 109.695 21.0505 109.546 20.9876C109.44 20.9432 109.349 20.9053 109.259 20.9053L108.605 20.2421C108.538 20.1082 108.452 19.9744 108.358 19.8282C108.142 19.4917 107.884 19.0902 107.732 18.4737L102.495 3.22105H101.186ZM101.186 4.98947L104.023 13.3895H98.5682L101.186 4.98947ZM46.8591 3.22105L41.8409 18.4737C41.6227 19.3579 41.4045 20.0211 40.9682 20.4632C40.8227 20.6105 40.4833 20.7579 40.1439 20.9053C39.9742 20.979 39.8045 21.0526 39.6591 21.1263V21.3474H43.8045V21.1263C43.3896 21.1263 43.15 21.0375 42.9746 20.9724C42.8733 20.9349 42.7935 20.9053 42.7136 20.9053C42.4954 20.6842 42.2773 20.2421 42.2773 19.8C42.2773 19.3579 42.2772 18.9158 42.4954 18.4737L44.0227 14.0526H50.1318L51.6591 18.6947V18.9158C51.8773 19.3579 51.8773 19.8 51.8773 20.0211C51.8773 20.4632 51.6591 20.6842 51.4409 20.9053C51.2227 20.9053 51.0045 20.9605 50.7863 21.0158C50.5682 21.0711 50.35 21.1263 50.1318 21.1263V21.3474H55.8045V21.1263C55.5489 21.1263 55.3682 21.0505 55.2184 20.9876C55.1126 20.9432 55.0222 20.9053 54.9318 20.9053L54.2773 20.2421C54.2112 20.1082 54.1251 19.9744 54.0312 19.8282C53.8148 19.4917 53.5566 19.0902 53.4045 18.4737L48.1682 3.22105H46.8591ZM46.8591 4.98947L49.6954 13.3895H44.2409L46.8591 4.98947ZM76.9682 3.44211V3.66316H77.1864C77.4045 3.66316 77.6227 3.66316 77.8409 3.88421L78.4954 4.54737C78.7136 4.76842 78.7136 5.21053 78.7136 5.65263V19.1368C78.7136 19.5789 78.4954 20.0211 78.2773 20.4632C78.0591 20.9053 77.6227 21.1263 77.1864 21.1263H76.9682V21.3474H84.8227C85.9136 21.3474 87.0045 21.1263 87.6591 20.9053C88.5318 20.6842 89.1864 20.4632 89.6227 20.0211C90.2773 19.8 90.9318 19.1368 91.3682 18.6947C91.5864 18.4737 91.8045 18.1974 92.0227 17.9211C92.2409 17.6447 92.4591 17.3684 92.6772 17.1474C93.1136 16.4842 93.3318 15.8211 93.55 14.9368C93.7682 14.2737 93.7682 13.3895 93.7682 12.7263C93.7682 11.8421 93.7682 11.1789 93.55 10.2947C93.508 10.1672 93.4661 10.0314 93.4225 9.89065L93.4224 9.89026C93.2397 9.29929 93.0296 8.61968 92.6772 8.08421C92.2409 7.42105 91.8045 6.7579 91.15 6.31579C91.0091 6.0303 90.7772 5.83699 90.5131 5.6168C90.3682 5.49601 90.2137 5.36714 90.0591 5.21053C89.927 5.1436 89.7748 5.0564 89.6088 4.96122C89.2264 4.74202 88.77 4.48044 88.3136 4.32631C87.6591 4.10526 87.0045 3.88421 86.1318 3.66316C85.4772 3.4421 84.6045 3.44211 83.5136 3.44211H76.9682ZM81.9863 20.4632C81.3318 20.4632 81.1136 20.2421 80.8954 20.0211C80.6773 19.579 80.4591 19.1368 80.4591 18.4737V4.32631C81.7682 4.10526 82.6409 4.10526 83.5136 4.10526C85.0409 4.10526 86.1318 4.32631 87.2227 4.76842C88.3136 5.21052 89.1864 6.09474 89.8409 6.97895C90.4955 7.64211 90.9318 8.74737 91.15 9.63158C91.5863 10.7368 91.5863 11.8421 91.5863 12.7263C91.5863 14.0526 91.5863 15.3789 91.15 16.2632C90.7136 17.1474 90.2773 18.0316 89.6227 18.6947C88.9682 19.5789 88.0954 20.0211 87.2227 20.2421C86.35 20.6842 85.2591 20.6842 83.95 20.6842C83.0772 20.6842 82.4227 20.6842 81.9863 20.4632ZM70.8591 3.44211V3.66316C71.2954 3.66316 71.7318 3.88421 72.1682 4.10526C72.3863 4.32632 72.6045 4.76842 72.6045 5.21053C72.8227 5.43158 72.8227 6.09474 72.8227 6.97895V18.4737L59.5136 3.44211H56.2409V3.66316C56.6773 3.66316 57.1136 3.88421 57.3318 4.10526C57.55 4.10526 57.9864 4.54737 58.6409 5.21053L59.0773 5.87368V17.3684V19.8C58.8591 20.2421 58.6409 20.4632 58.4227 20.6842C58.2045 20.9053 57.7682 21.1263 57.3318 21.1263V21.3474H61.6954V21.1263C60.8227 21.1263 60.3864 20.9053 60.1682 20.4632C60.0456 20.339 59.9919 20.1452 59.9297 19.9208C59.8812 19.7456 59.8275 19.5517 59.7318 19.3579V17.3684V6.53684L73.2591 21.7895V6.09474C73.2591 5.43158 73.2591 4.98947 73.4773 4.54737L74.1318 3.88421C74.2222 3.88421 74.35 3.84628 74.4997 3.80185C74.7115 3.73901 74.9671 3.66316 75.2227 3.66316V3.44211H70.8591ZM28.75 3.44211V3.66316H28.9682H29.4045C29.4879 3.74759 29.5712 3.79978 29.6424 3.84435C29.7576 3.91646 29.8409 3.96865 29.8409 4.10526C30.0591 4.10526 30.2773 4.32632 30.2773 4.54737C30.4954 4.98947 30.4954 5.21053 30.4954 5.65263V19.1368C30.4954 19.8 30.2773 20.2421 30.0591 20.6842C29.6227 20.9053 29.1864 21.1263 28.75 21.1263V21.3474H34.2045V21.1263C32.8955 21.1263 32.2409 20.4632 32.2409 19.1368V12.9474C33.3318 13.1684 33.9864 13.1684 34.2045 13.1684C35.2955 13.1684 36.1682 12.9474 37.0409 12.7263C37.6954 12.5053 38.35 12.0632 38.7863 11.6211C39.4409 11.1789 39.6591 10.7368 39.8773 10.0737C40.0954 9.63158 40.3136 8.96842 40.3136 8.30526C40.3136 7.6421 40.0954 6.97895 39.8773 6.53684C39.6591 5.87369 39.2227 5.43158 38.7863 4.98947C38.35 4.54737 37.6954 4.10526 37.0409 3.88421C36.1682 3.66316 35.2954 3.44211 34.4227 3.44211H28.75ZM32.2409 12.5053V4.10526C32.8954 3.88421 33.55 3.88421 33.9864 3.88421C35.5136 3.88421 36.3863 4.32631 37.2591 5.21053C37.9136 6.09474 38.1318 7.2 38.1318 8.52632C38.1318 10.0737 37.9136 11.1789 37.0409 11.8421C36.1682 12.2842 35.2955 12.7263 34.2045 12.7263C33.8773 12.7263 33.55 12.6711 33.2227 12.6158C32.8954 12.5605 32.5682 12.5053 32.2409 12.5053ZM155.732 11.8421C153.986 12.0632 145.695 12.2842 145.259 12.2842C144.081 12.2842 143.138 12.2046 142.384 12.141C141.882 12.0985 141.463 12.0632 141.114 12.0632H140.677H140.459C140.459 12.5053 142.859 13.3895 143.295 13.3895C143.465 13.3895 143.568 13.3231 143.695 13.2418C143.896 13.1133 144.154 12.9474 144.823 12.9474C145.322 12.9474 146.005 12.901 146.745 12.8507C147.621 12.7912 148.577 12.7263 149.405 12.7263V14.9368C149.405 15.6 149.623 15.8211 149.841 15.8211C150.059 15.8211 150.277 15.6 150.277 15.1579C150.714 14.4947 150.714 13.8316 150.714 12.7263C151.075 12.7263 151.549 12.6884 152.104 12.644C152.889 12.5811 153.837 12.5053 154.859 12.5053C155.58 12.5053 156.367 12.5723 157.074 12.6325C157.651 12.6817 158.176 12.7263 158.568 12.7263H158.786C159.223 12.7263 159.441 12.5053 159.441 12.0632C159.441 11.4 158.132 11.4 157.477 11.4C156.803 11.4 156.629 11.4844 156.388 11.6011C156.239 11.6732 156.065 11.7577 155.732 11.8421ZM154.205 15.8211C153.844 15.8211 153.682 15.888 153.537 15.9483C153.418 15.9974 153.31 16.0421 153.114 16.0421C152.267 16.0421 151.265 16.0942 150.235 16.1478C149.142 16.2046 148.015 16.2632 147.004 16.2632C145.695 16.2632 144.605 16.2632 143.95 16.0421H143.514H143.295C143.295 16.2632 144.823 17.1474 145.477 17.1474C145.747 17.1474 145.933 17.0629 146.191 16.9462C146.35 16.8741 146.536 16.7897 146.786 16.7053C148.167 16.7053 149.908 16.6321 151.388 16.57C152.48 16.5241 153.43 16.4842 153.986 16.4842V22.4526C153.986 22.8947 153.986 23.1158 154.205 23.1158C154.423 23.1158 154.859 22.8947 154.859 22.2316C155.295 20.9053 155.295 19.5789 155.295 16.7053C155.295 16.5947 155.35 16.4842 155.405 16.3737C155.459 16.2632 155.514 16.1526 155.514 16.0421C155.514 16.0421 155.295 15.8211 154.423 15.8211H154.205ZM110.786 24H160.75V23.779H110.786V24Z" fill="#2A1309"/>
<path fill-rule="evenodd" clip-rule="evenodd" d="M148.382 3.09326C148.423 3.12435 148.477 3.16579 148.532 3.22105C149.186 3.66316 149.841 4.10526 149.841 4.54737V4.76842C148.532 6.53684 145.259 9.18947 142.205 10.5158C141.768 10.5158 141.768 10.7368 141.768 10.7368C142.423 10.7368 147.223 8.96842 149.841 6.53684C151.805 7.2 155.95 8.96842 156.823 9.41053H157.259C157.695 9.41053 157.914 9.41053 157.914 9.18947C157.914 8.96842 157.695 8.52631 157.259 8.30526C155.717 7.45303 155.166 7.42221 154.621 7.39177C154.319 7.37484 154.018 7.35803 153.55 7.2C153.086 7.04338 152.65 6.91451 152.241 6.79372C151.495 6.57354 150.841 6.38023 150.277 6.09474C150.714 5.65263 151.805 4.54737 151.805 4.32631C151.805 4.1897 151.721 4.13752 151.606 4.0654C151.535 4.02083 151.451 3.96865 151.368 3.88421C150.495 3.44211 149.623 3 148.75 3C148.432 3 148.32 3 148.314 3.02541C148.311 3.03919 148.339 3.06046 148.382 3.09326ZM101.186 3.22105L96.1682 18.4737C95.95 19.3579 95.7318 20.0211 95.2954 20.4632C95.15 20.6105 94.8106 20.7579 94.4712 20.9053C94.3015 20.9789 94.1318 21.0526 93.9863 21.1263V21.3474H98.1318V21.1263C97.8762 21.1263 97.6206 21.0505 97.4088 20.9876C97.2591 20.9432 97.1313 20.9053 97.0409 20.9053C96.8227 20.6842 96.6046 20.2421 96.6046 19.8C96.6046 19.5789 96.6591 19.3579 96.7136 19.1368C96.7682 18.9158 96.8227 18.6947 96.8227 18.4737L98.35 14.0526H104.459L105.986 18.6947V18.9158C106.205 19.3579 106.205 19.8 106.205 20.0211C106.205 20.4632 105.986 20.6842 105.768 20.9053C105.678 20.9053 105.513 20.9432 105.319 20.9876C105.045 21.0505 104.715 21.1263 104.459 21.1263V21.3474H110.132V21.1263C109.876 21.1263 109.695 21.0505 109.546 20.9876C109.44 20.9432 109.349 20.9053 109.259 20.9053L108.605 20.2421C108.538 20.1082 108.452 19.9744 108.358 19.8282C108.142 19.4917 107.884 19.0902 107.732 18.4737L102.495 3.22105H101.186ZM101.186 4.98947L104.023 13.3895H98.5682L101.186 4.98947ZM46.8591 3.22105L41.8409 18.4737C41.6227 19.3579 41.4045 20.0211 40.9682 20.4632C40.8227 20.6105 40.4833 20.7579 40.1439 20.9053C39.9742 20.979 39.8045 21.0526 39.6591 21.1263V21.3474H43.8045V21.1263C43.3896 21.1263 43.15 21.0375 42.9746 20.9724C42.8733 20.9349 42.7935 20.9053 42.7136 20.9053C42.4954 20.6842 42.2773 20.2421 42.2773 19.8C42.2773 19.3579 42.2772 18.9158 42.4954 18.4737L44.0227 14.0526H50.1318L51.6591 18.6947V18.9158C51.8773 19.3579 51.8773 19.8 51.8773 20.0211C51.8773 20.4632 51.6591 20.6842 51.4409 20.9053C51.2227 20.9053 51.0045 20.9605 50.7863 21.0158C50.5682 21.0711 50.35 21.1263 50.1318 21.1263V21.3474H55.8045V21.1263C55.5489 21.1263 55.3682 21.0505 55.2184 20.9876C55.1126 20.9432 55.0222 20.9053 54.9318 20.9053L54.2773 20.2421C54.2112 20.1082 54.1251 19.9744 54.0312 19.8282C53.8148 19.4917 53.5566 19.0902 53.4045 18.4737L48.1682 3.22105H46.8591ZM46.8591 4.98947L49.6954 13.3895H44.2409L46.8591 4.98947ZM76.9682 3.44211V3.66316H77.1864C77.4045 3.66316 77.6227 3.66316 77.8409 3.88421L78.4954 4.54737C78.7136 4.76842 78.7136 5.21053 78.7136 5.65263V19.1368C78.7136 19.5789 78.4954 20.0211 78.2773 20.4632C78.0591 20.9053 77.6227 21.1263 77.1864 21.1263H76.9682V21.3474H84.8227C85.9136 21.3474 87.0045 21.1263 87.6591 20.9053C88.5318 20.6842 89.1864 20.4632 89.6227 20.0211C90.2773 19.8 90.9318 19.1368 91.3682 18.6947C91.5864 18.4737 91.8045 18.1974 92.0227 17.9211C92.2409 17.6447 92.4591 17.3684 92.6772 17.1474C93.1136 16.4842 93.3318 15.8211 93.55 14.9368C93.7682 14.2737 93.7682 13.3895 93.7682 12.7263C93.7682 11.8421 93.7682 11.1789 93.55 10.2947C93.508 10.1672 93.4661 10.0314 93.4225 9.89065L93.4224 9.89026C93.2397 9.29929 93.0296 8.61968 92.6772 8.08421C92.2409 7.42105 91.8045 6.7579 91.15 6.31579C91.0091 6.0303 90.7772 5.83699 90.5131 5.6168C90.3682 5.49601 90.2137 5.36714 90.0591 5.21053C89.927 5.1436 89.7748 5.0564 89.6088 4.96122C89.2264 4.74202 88.77 4.48044 88.3136 4.32631C87.6591 4.10526 87.0045 3.88421 86.1318 3.66316C85.4772 3.4421 84.6045 3.44211 83.5136 3.44211H76.9682ZM81.9863 20.4632C81.3318 20.4632 81.1136 20.2421 80.8954 20.0211C80.6773 19.579 80.4591 19.1368 80.4591 18.4737V4.32631C81.7682 4.10526 82.6409 4.10526 83.5136 4.10526C85.0409 4.10526 86.1318 4.32631 87.2227 4.76842C88.3136 5.21052 89.1864 6.09474 89.8409 6.97895C90.4955 7.64211 90.9318 8.74737 91.15 9.63158C91.5863 10.7368 91.5863 11.8421 91.5863 12.7263C91.5863 14.0526 91.5863 15.3789 91.15 16.2632C90.7136 17.1474 90.2773 18.0316 89.6227 18.6947C88.9682 19.5789 88.0954 20.0211 87.2227 20.2421C86.35 20.6842 85.2591 20.6842 83.95 20.6842C83.0772 20.6842 82.4227 20.6842 81.9863 20.4632ZM70.8591 3.44211V3.66316C71.2954 3.66316 71.7318 3.88421 72.1682 4.10526C72.3863 4.32632 72.6045 4.76842 72.6045 5.21053C72.8227 5.43158 72.8227 6.09474 72.8227 6.97895V18.4737L59.5136 3.44211H56.2409V3.66316C56.6773 3.66316 57.1136 3.88421 57.3318 4.10526C57.55 4.10526 57.9864 4.54737 58.6409 5.21053L59.0773 5.87368V17.3684V19.8C58.8591 20.2421 58.6409 20.4632 58.4227 20.6842C58.2045 20.9053 57.7682 21.1263 57.3318 21.1263V21.3474H61.6954V21.1263C60.8227 21.1263 60.3864 20.9053 60.1682 20.4632C60.0456 20.339 59.9919 20.1452 59.9297 19.9208C59.8812 19.7456 59.8275 19.5517 59.7318 19.3579V17.3684V6.53684L73.2591 21.7895V6.09474C73.2591 5.43158 73.2591 4.98947 73.4773 4.54737L74.1318 3.88421C74.2222 3.88421 74.35 3.84628 74.4997 3.80185C74.7115 3.73901 74.9671 3.66316 75.2227 3.66316V3.44211H70.8591ZM28.75 3.44211V3.66316H28.9682H29.4045C29.4879 3.74759 29.5712 3.79978 29.6424 3.84435C29.7576 3.91646 29.8409 3.96865 29.8409 4.10526C30.0591 4.10526 30.2773 4.32632 30.2773 4.54737C30.4954 4.98947 30.4954 5.21053 30.4954 5.65263V19.1368C30.4954 19.8 30.2773 20.2421 30.0591 20.6842C29.6227 20.9053 29.1864 21.1263 28.75 21.1263V21.3474H34.2045V21.1263C32.8955 21.1263 32.2409 20.4632 32.2409 19.1368V12.9474C33.3318 13.1684 33.9864 13.1684 34.2045 13.1684C35.2955 13.1684 36.1682 12.9474 37.0409 12.7263C37.6954 12.5053 38.35 12.0632 38.7863 11.6211C39.4409 11.1789 39.6591 10.7368 39.8773 10.0737C40.0954 9.63158 40.3136 8.96842 40.3136 8.30526C40.3136 7.6421 40.0954 6.97895 39.8773 6.53684C39.6591 5.87369 39.2227 5.43158 38.7863 4.98947C38.35 4.54737 37.6954 4.10526 37.0409 3.88421C36.1682 3.66316 35.2954 3.44211 34.4227 3.44211H28.75ZM32.2409 12.5053V4.10526C32.8954 3.88421 33.55 3.88421 33.9864 3.88421C35.5136 3.88421 36.3863 4.32631 37.2591 5.21053C37.9136 6.09474 38.1318 7.2 38.1318 8.52632C38.1318 10.0737 37.9136 11.1789 37.0409 11.8421C36.1682 12.2842 35.2955 12.7263 34.2045 12.7263C33.8773 12.7263 33.55 12.6711 33.2227 12.6158C32.8954 12.5605 32.5682 12.5053 32.2409 12.5053ZM155.732 11.8421C153.986 12.0632 145.695 12.2842 145.259 12.2842C144.081 12.2842 143.138 12.2046 142.384 12.141C141.882 12.0985 141.463 12.0632 141.114 12.0632H140.677H140.459C140.459 12.5053 142.859 13.3895 143.295 13.3895C143.465 13.3895 143.568 13.3231 143.695 13.2418C143.896 13.1133 144.154 12.9474 144.823 12.9474C145.322 12.9474 146.005 12.901 146.745 12.8507C147.621 12.7912 148.577 12.7263 149.405 12.7263V14.9368C149.405 15.6 149.623 15.8211 149.841 15.8211C150.059 15.8211 150.277 15.6 150.277 15.1579C150.714 14.4947 150.714 13.8316 150.714 12.7263C151.075 12.7263 151.549 12.6884 152.104 12.644C152.889 12.5811 153.837 12.5053 154.859 12.5053C155.58 12.5053 156.367 12.5723 157.074 12.6325C157.651 12.6817 158.176 12.7263 158.568 12.7263H158.786C159.223 12.7263 159.441 12.5053 159.441 12.0632C159.441 11.4 158.132 11.4 157.477 11.4C156.803 11.4 156.629 11.4844 156.388 11.6011C156.239 11.6732 156.065 11.7577 155.732 11.8421ZM154.205 15.8211C153.844 15.8211 153.682 15.888 153.537 15.9483C153.418 15.9974 153.31 16.0421 153.114 16.0421C152.267 16.0421 151.265 16.0942 150.235 16.1478C149.142 16.2046 148.015 16.2632 147.004 16.2632C145.695 16.2632 144.605 16.2632 143.95 16.0421H143.514H143.295C143.295 16.2632 144.823 17.1474 145.477 17.1474C145.747 17.1474 145.933 17.0629 146.191 16.9462C146.35 16.8741 146.536 16.7897 146.786 16.7053C148.167 16.7053 149.908 16.6321 151.388 16.57C152.48 16.5241 153.43 16.4842 153.986 16.4842V22.4526C153.986 22.8947 153.986 23.1158 154.205 23.1158C154.423 23.1158 154.859 22.8947 154.859 22.2316C155.295 20.9053 155.295 19.5789 155.295 16.7053C155.295 16.5947 155.35 16.4842 155.405 16.3737C155.459 16.2632 155.514 16.1526 155.514 16.0421C155.514 16.0421 155.295 15.8211 154.423 15.8211H154.205ZM110.786 24H160.75V23.779H110.786V24Z" fill="black" fill-opacity="0.2"/>
<path d="M132.168 3.44211V3.66316C132.823 3.66316 133.259 3.88421 133.477 4.10526C133.914 4.32632 134.132 4.76842 134.132 5.65263V19.1368C134.132 19.8 133.914 20.2421 133.477 20.6842C133.259 20.9053 132.823 21.1263 132.168 21.1263V21.3474H137.841V21.1263C137.405 21.1263 136.968 20.9053 136.532 20.6842C136.095 20.2421 135.877 19.8 135.877 19.1368V5.65263C135.877 4.98947 136.095 4.32632 136.532 4.10526C136.75 3.88421 137.186 3.66316 137.841 3.66316V3.44211H132.168Z" fill="#2A1309"/>
<path d="M132.168 3.44211V3.66316C132.823 3.66316 133.259 3.88421 133.477 4.10526C133.914 4.32632 134.132 4.76842 134.132 5.65263V19.1368C134.132 19.8 133.914 20.2421 133.477 20.6842C133.259 20.9053 132.823 21.1263 132.168 21.1263V21.3474H137.841V21.1263C137.405 21.1263 136.968 20.9053 136.532 20.6842C136.095 20.2421 135.877 19.8 135.877 19.1368V5.65263C135.877 4.98947 136.095 4.32632 136.532 4.10526C136.75 3.88421 137.186 3.66316 137.841 3.66316V3.44211H132.168Z" fill="black" fill-opacity="0.2"/>
</svg>
