<svg width="1216" height="191" viewBox="0 0 1216 191" fill="none" xmlns="http://www.w3.org/2000/svg">
<path d="M898.433 4.0489L848.185 136.703L797.937 4.0489H759.749V6.0588H767.788C769.798 6.0588 771.808 8.06873 773.818 10.0786C775.828 10.0786 775.828 10.0786 777.838 12.0885C779.848 14.0985 779.848 14.0984 779.848 16.1084C781.858 16.1084 781.858 18.1183 781.858 18.1183L775.828 136.703C775.828 142.733 773.818 148.763 773.818 150.773C773.818 154.793 771.808 158.813 767.788 160.822C765.778 162.832 761.759 164.842 755.729 164.842V166.852H797.937V164.842C791.907 162.832 789.897 162.832 787.887 160.822C783.867 158.813 783.868 156.803 781.858 152.783C779.848 150.773 779.848 144.743 779.848 138.713L785.878 24.1481H787.887L840.145 166.852L898.433 18.1183L904.463 142.733C904.463 150.773 904.463 154.793 900.443 158.813C898.433 160.822 894.413 162.832 886.374 164.842V166.852H938.631V164.842C932.601 164.842 926.572 162.832 924.562 158.813C922.552 154.793 920.542 150.773 920.542 144.743L914.512 26.158V24.1481C916.522 20.1282 916.522 16.1084 916.522 14.0985C916.522 12.0886 918.532 12.0886 920.542 10.0786C922.552 8.06873 924.562 8.06871 926.572 6.0588H932.602V4.0489H898.433Z" fill="url(#paint0_linear_1240_8264)"/>
<path fill-rule="evenodd" clip-rule="evenodd" d="M1102.06 0.877027C1102.44 1.15967 1102.94 1.53652 1103.44 2.03898C1109.47 6.05881 1115.5 10.0786 1115.5 14.0985V16.1084C1103.44 32.1877 1073.3 56.3067 1045.16 68.3662C1041.14 68.3662 1041.14 70.3761 1041.14 70.3761C1047.17 70.3761 1091.39 54.2968 1115.5 32.1877C1133.59 38.2175 1171.78 54.2968 1179.82 58.3166H1183.84C1187.86 58.3166 1189.87 58.3166 1189.87 56.3067C1189.87 54.2968 1187.86 50.277 1183.84 48.267C1169.63 40.5182 1164.56 40.2379 1159.54 39.9612C1156.75 39.8072 1153.98 39.6544 1149.67 38.2175C1145.4 36.7935 1141.38 35.6217 1137.61 34.5234C1130.74 32.5214 1124.72 30.7637 1119.52 28.1679C1123.54 24.1481 1133.59 14.0985 1133.59 12.0885C1133.59 10.8464 1132.83 10.3719 1131.76 9.7162C1131.11 9.31095 1130.34 8.83647 1129.57 8.06872C1121.53 4.04889 1113.49 0.0290527 1105.45 0.0290527C1102.52 0.0290527 1101.49 0.0290527 1101.44 0.26008C1101.41 0.385425 1101.67 0.578775 1102.06 0.877027ZM667.292 2.03898L621.064 140.723C619.054 148.763 617.045 154.793 613.025 158.813C611.685 160.152 608.558 161.492 605.432 162.832C603.868 163.502 602.305 164.172 600.965 164.842V166.852H639.154V164.842C636.799 164.842 634.444 164.153 632.493 163.581C631.114 163.177 629.936 162.832 629.104 162.832C627.094 160.822 625.084 156.803 625.084 152.783C625.084 150.773 625.587 148.763 626.089 146.753C626.591 144.743 627.094 142.733 627.094 140.723L641.164 100.525H697.441L711.511 142.733V144.743C713.521 148.763 713.521 152.783 713.521 154.793C713.521 158.813 711.51 160.822 709.501 162.832C708.668 162.832 707.146 163.177 705.362 163.581C702.84 164.153 699.796 164.842 697.441 164.842V166.852H749.699V164.842C747.344 164.842 745.679 164.153 744.3 163.581C743.324 163.177 742.492 162.832 741.659 162.832L735.63 156.803C735.021 155.585 734.228 154.368 733.363 153.039C731.37 149.98 728.991 146.329 727.59 140.723L679.352 2.03898H667.292ZM667.292 18.1183L693.421 94.4952H643.174L667.292 18.1183ZM166.823 2.03898L120.595 140.723C118.585 148.763 116.575 154.793 112.555 158.813C111.215 160.152 108.089 161.492 104.962 162.832C103.399 163.502 101.836 164.172 100.496 164.842V166.852H138.684V164.842C134.861 164.842 132.654 164.034 131.039 163.443C130.106 163.102 129.37 162.832 128.635 162.832C126.625 160.822 124.615 156.803 124.615 152.783C124.615 148.763 124.615 144.743 126.625 140.723L140.694 100.525H196.972L211.041 142.733V144.743C213.051 148.763 213.051 152.783 213.051 154.793C213.051 158.813 211.041 160.822 209.031 162.832C207.021 162.832 205.011 163.335 203.001 163.837C200.992 164.34 198.982 164.842 196.972 164.842V166.852H249.23V164.842C246.875 164.842 245.21 164.153 243.831 163.581C242.855 163.177 242.023 162.832 241.19 162.832L235.16 156.803C234.552 155.585 233.759 154.368 232.893 153.04C230.9 149.98 228.522 146.329 227.12 140.723L178.883 2.03898H166.823ZM166.823 18.1183L192.952 94.4952H142.704L166.823 18.1183ZM444.192 4.0489V6.0588H446.202C448.212 6.0588 450.222 6.05881 452.231 8.06872L458.261 14.0985C460.271 16.1084 460.271 20.1282 460.271 24.1481V146.753C460.271 150.773 458.261 154.793 456.251 158.813C454.241 162.832 450.221 164.842 446.202 164.842H444.192V166.852H516.549C526.598 166.852 536.648 164.842 542.678 162.832C550.717 160.822 556.747 158.813 560.767 154.793C566.797 152.783 572.826 146.753 576.846 142.733C578.856 140.723 580.866 138.211 582.876 135.698C584.886 133.186 586.896 130.674 588.906 128.664C592.925 122.634 594.936 116.604 596.945 108.565C598.955 102.535 598.955 94.4951 598.955 88.4654C598.955 80.4257 598.955 74.396 596.945 66.3563C596.559 65.1964 596.172 63.9622 595.771 62.6822L595.77 62.6786C594.087 57.3052 592.151 51.1259 588.906 46.2571C584.886 40.2274 580.866 34.1976 574.836 30.1778C573.538 27.582 571.402 25.8243 568.969 23.8223C567.635 22.724 566.211 21.5522 564.787 20.1282C563.57 19.5197 562.168 18.7269 560.638 17.8614C557.116 15.8684 552.911 13.4899 548.707 12.0885C542.677 10.0786 536.648 8.06871 528.608 6.0588C522.578 4.04888 514.539 4.0489 504.489 4.0489H444.192ZM490.42 158.813C484.39 158.813 482.38 156.803 480.37 154.793C478.36 150.773 476.35 146.753 476.35 140.723V12.0885C488.41 10.0786 496.449 10.0786 504.489 10.0786C518.559 10.0786 528.608 12.0885 538.658 16.1084C548.707 20.1282 556.747 28.1679 562.777 36.2076C568.807 42.2373 572.826 52.2869 574.836 60.3266C578.856 70.3762 578.856 80.4257 578.856 88.4654C578.856 100.525 578.856 112.584 574.836 120.624C570.816 128.664 566.797 136.703 560.767 142.733C554.737 150.773 546.697 154.793 538.658 156.803C530.618 160.822 520.568 160.822 508.509 160.822C500.469 160.822 494.44 160.822 490.42 158.813ZM387.914 4.0489V6.0588C391.934 6.0588 395.954 8.06873 399.973 10.0786C401.983 12.0886 403.993 16.1084 403.993 20.1282C406.003 22.1381 406.003 28.1679 406.003 36.2076V140.723L283.398 4.0489H253.249V6.0588C257.269 6.0588 261.289 8.06873 263.299 10.0786C265.309 10.0786 269.329 14.0985 275.359 20.1282L279.378 26.158V130.674V152.783C277.368 156.803 275.358 158.813 273.349 160.822C271.339 162.832 267.319 164.842 263.299 164.842V166.852H303.497V164.842C295.458 164.842 291.438 162.832 289.428 158.813C288.299 157.684 287.804 155.921 287.232 153.881C286.784 152.288 286.289 150.525 285.408 148.763V130.674V32.1877L410.023 170.872V28.1679C410.023 22.1381 410.023 18.1183 412.033 14.0985L418.063 8.06872C418.895 8.06872 420.072 7.72388 421.452 7.31986C423.403 6.7485 425.757 6.0588 428.112 6.0588V4.0489H387.914ZM0 4.0489V6.0588H2.00973H6.02951C6.79725 6.82654 7.56503 7.30103 8.2208 7.70629C9.2818 8.36199 10.0496 8.83648 10.0496 10.0786C12.0595 10.0786 14.0694 12.0886 14.0694 14.0985C16.0793 18.1183 16.0791 20.1282 16.0791 24.1481V146.753C16.0791 152.783 14.0692 156.803 12.0593 160.822C8.03949 162.832 4.01983 164.842 0 164.842V166.852H50.2479V164.842C38.1884 164.842 32.1585 158.812 32.1585 146.753V90.4753C42.2081 92.4852 48.238 92.4852 50.2479 92.4852C60.2975 92.4852 68.3369 90.4753 76.3766 88.4654C82.4064 86.4555 88.4362 82.4356 92.456 78.4158C98.4858 74.396 100.496 70.3762 102.506 64.3464C104.516 60.3266 106.525 54.2968 106.525 48.267C106.525 42.2373 104.516 36.2076 102.506 32.1877C100.496 26.158 96.4759 22.1381 92.456 18.1183C88.4362 14.0985 82.4064 10.0786 76.3766 8.06872C68.3369 6.05881 60.2973 4.0489 52.2577 4.0489H0ZM32.1585 86.4555V10.0786C38.1882 8.06873 44.2181 8.06872 48.2379 8.06872C62.3073 8.06872 70.347 12.0885 78.3867 20.1282C84.4164 28.1679 86.4262 38.2175 86.4262 50.277C86.4262 64.3464 84.4163 74.396 76.3766 80.4257C68.3369 84.4456 60.2975 88.4654 50.2479 88.4654C47.2331 88.4654 44.2181 87.9629 41.2032 87.4604C38.1883 86.958 35.1734 86.4555 32.1585 86.4555ZM1169.77 80.4257C1153.69 82.4356 1077.32 84.4456 1073.3 84.4456C1062.44 84.4456 1053.76 83.722 1046.81 83.1431C1042.18 82.7572 1038.32 82.4357 1035.11 82.4357H1031.09H1029.08C1029.08 86.4555 1051.19 94.4952 1055.21 94.4952C1056.76 94.4952 1057.72 93.8918 1058.89 93.1526C1060.73 91.9838 1063.12 90.4753 1069.28 90.4753C1073.88 90.4753 1080.17 90.0536 1086.99 89.5966C1095.05 89.0558 1103.86 88.4654 1111.48 88.4654V108.565C1111.48 114.594 1113.49 116.604 1115.5 116.604C1117.51 116.604 1119.52 114.594 1119.52 110.574C1123.54 104.545 1123.54 98.515 1123.54 88.4654C1126.87 88.4654 1131.24 88.1206 1136.35 87.7165C1143.58 87.1452 1152.31 86.4555 1161.73 86.4555C1168.37 86.4555 1175.62 87.0646 1182.13 87.6122C1187.46 88.0593 1192.29 88.4654 1195.9 88.4654H1197.91C1201.93 88.4654 1203.94 86.4555 1203.94 82.4357C1203.94 76.4059 1191.88 76.4059 1185.85 76.4059C1179.64 76.4059 1178.04 77.1736 1175.82 78.2346C1174.45 78.8903 1172.84 79.658 1169.77 80.4257ZM1155.7 116.604C1152.38 116.604 1150.89 117.213 1149.55 117.761C1148.45 118.208 1147.46 118.614 1145.65 118.614C1137.85 118.614 1128.63 119.087 1119.13 119.575C1109.06 120.092 1098.69 120.624 1089.37 120.624C1077.32 120.624 1067.27 120.624 1061.24 118.614H1057.22H1055.21C1055.21 120.624 1069.28 128.664 1075.31 128.664C1077.79 128.664 1079.51 127.896 1081.88 126.835C1083.35 126.179 1085.06 125.412 1087.37 124.644C1100.08 124.644 1116.12 123.979 1129.75 123.414C1139.82 122.997 1148.57 122.634 1153.69 122.634V176.902C1153.69 180.922 1153.69 182.931 1155.7 182.931C1157.71 182.931 1161.73 180.922 1161.73 174.892C1165.75 162.832 1165.75 150.773 1165.75 124.644C1165.75 123.639 1166.25 122.634 1166.76 121.629C1167.26 120.624 1167.76 119.619 1167.76 118.614C1167.76 118.614 1165.75 116.604 1157.71 116.604H1155.7ZM755.729 190.971H1216V188.961H755.729V190.971Z" fill="url(#paint1_linear_1240_8264)"/>
<path d="M952.701 4.0489V6.0588C958.73 6.0588 962.75 8.06873 964.76 10.0786C968.78 12.0886 970.79 16.1084 970.79 24.1481V146.753C970.79 152.783 968.78 156.803 964.76 160.822C962.75 162.832 958.73 164.842 952.701 164.842V166.852H1004.96V164.842C1000.94 164.842 996.919 162.832 992.899 160.822C988.879 156.803 986.87 152.783 986.87 146.753V24.1481C986.87 18.1183 988.879 12.0886 992.899 10.0786C994.909 8.06873 998.929 6.0588 1004.96 6.0588V4.0489H952.701Z" fill="url(#paint2_linear_1240_8264)"/>
<defs>
<linearGradient id="paint0_linear_1240_8264" x1="659.626" y1="228.322" x2="656.31" y2="-519.55" gradientUnits="userSpaceOnUse">
<stop stop-color="#FFF7F2" stop-opacity="0.2"/>
<stop offset="1" stop-color="#2A1309"/>
</linearGradient>
<linearGradient id="paint1_linear_1240_8264" x1="659.626" y1="228.322" x2="656.31" y2="-519.55" gradientUnits="userSpaceOnUse">
<stop stop-color="#FFF7F2" stop-opacity="0.2"/>
<stop offset="1" stop-color="#2A1309"/>
</linearGradient>
<linearGradient id="paint2_linear_1240_8264" x1="659.626" y1="228.322" x2="656.31" y2="-519.55" gradientUnits="userSpaceOnUse">
<stop stop-color="#FFF7F2" stop-opacity="0.2"/>
<stop offset="1" stop-color="#2A1309"/>
</linearGradient>
</defs>
</svg>
