<svg width="282" height="347" viewBox="0 0 282 347" fill="none" xmlns="http://www.w3.org/2000/svg">
<path d="M123.658 33.9904C123.658 30.2906 122.44 26.7423 120.272 24.1261C118.103 21.5098 115.162 20.0398 112.096 20.0398C109.029 20.0398 106.088 21.5098 103.92 24.1261C101.752 26.7423 100.534 30.2906 100.534 33.9904V241.857L38.1003 190.239C36.3827 188.685 34.3399 187.738 32.2016 187.505C30.0632 187.273 27.913 187.764 25.9927 188.922C24.0725 190.081 22.4573 191.862 21.3286 194.065C20.1998 196.269 19.6019 198.809 19.6019 201.4C19.6147 205.06 20.8188 208.567 22.9548 211.166L114.87 313.007C123.754 322.17 135.095 327.128 146.781 326.957H204.59L205.307 326.951C220.14 326.729 234.337 319.634 244.955 307.136L245.467 306.527C256.138 293.65 262.206 276.256 262.393 258.069L262.398 257.203V173.498C262.398 169.798 261.18 166.25 259.012 163.634C256.844 161.017 253.902 159.547 250.836 159.547C247.77 159.548 244.829 161.018 242.661 163.634C240.493 166.25 239.275 169.798 239.275 173.498V187.45H216.152V159.547C216.152 155.848 214.933 152.299 212.765 149.683C210.597 147.067 207.656 145.597 204.59 145.597C201.523 145.597 198.582 147.067 196.414 149.683C194.246 152.299 193.028 155.848 193.027 159.547V187.45H169.904V145.597C169.904 141.897 168.686 138.349 166.518 135.733C164.35 133.116 161.409 131.646 158.342 131.646C155.276 131.646 152.336 133.116 150.167 135.733C147.999 138.349 146.781 141.897 146.781 145.597V187.45H123.658V33.9904ZM143.26 115.834C147.665 113.183 152.796 111.607 158.342 111.607L159.222 111.619C167.975 111.883 175.639 116.068 180.95 122.162L181.474 122.778L181.973 123.396C183.978 125.936 185.574 128.719 186.772 131.637C191.726 127.883 197.852 125.557 204.59 125.557L205.468 125.571C214.221 125.834 221.885 130.019 227.197 136.113L227.72 136.729L228.22 137.346C230.225 139.887 231.82 142.67 233.018 145.587C237.972 141.833 244.099 139.508 250.836 139.508C259.954 139.508 267.955 143.767 273.444 150.064L273.968 150.679L274.466 151.297C279.542 157.727 282 165.709 282 173.498V257.203C282 280.043 274.509 302.484 260.422 319.481C246.251 336.58 226.267 346.997 204.59 346.997H146.788C129.424 347.171 113.185 339.736 100.948 327.114C100.784 326.944 100.622 326.772 100.464 326.596L8.54905 224.755C8.34369 224.528 8.1428 224.295 7.94798 224.058C2.61996 217.577 0.0277652 209.428 0 201.472V201.4C0 195.71 1.30372 189.962 3.96346 184.769C6.62611 179.571 10.6809 174.891 16.0309 171.663C21.2665 168.505 27.3909 166.969 33.6688 167.518L34.2766 167.578L34.8806 167.65C40.9162 168.436 46.345 171.076 50.6904 174.876L80.9317 199.879V33.9904C80.9318 25.9504 83.5508 17.7044 88.9649 11.1716L89.4884 10.5561C94.9774 4.25941 102.977 0 112.096 0L112.974 0.0136991C122.019 0.286107 129.901 4.74557 135.227 11.1716C140.641 17.7043 143.26 25.9501 143.26 33.9904V115.834Z" fill="#262626"/>
</svg>
