<svg width="186" height="65" viewBox="0 0 186 65" fill="none" xmlns="http://www.w3.org/2000/svg">
<path d="M47.328 41.0064C84.3271 36.7886 122.054 42.5459 154.556 57.369C155.806 57.9225 157.052 58.499 158.294 59.0647C161.752 60.6443 165.326 62.2779 169.028 63.6051C171.797 64.7445 174.926 65.2017 178.016 64.9182C179.267 64.7346 180.459 64.3457 181.515 63.7769C182.567 63.2082 183.465 62.471 184.147 61.6122C189.113 55.8532 182.757 51.2869 180.669 49.7857C177.747 47.6342 174.559 45.7266 171.156 44.0911C140.596 29.765 108.723 22.4824 76.4246 22.4458C68.6433 22.4372 60.9924 22.9687 52.8893 23.5319C49.9298 23.7367 46.9506 23.9443 43.919 24.1258C44.7566 23.0982 45.5829 22.0897 46.3963 21.101C49.205 17.677 51.8569 14.4451 54.3361 11.1188C57.2112 7.26402 56.7624 3.73886 53.0998 1.45406C47.5843 -1.99878 43.1327 1.51068 40.4712 3.60544C29.5113 12.2447 18.7828 20.6853 8.06069 28.9178C1.95292 33.6126 -0.771067 38.3908 0.187957 42.7375C1.07516 46.7485 5.09427 50.1369 11.8294 52.532C23.0297 56.2615 34.5484 59.3464 46.2959 61.7627L51.6485 62.9776C55.6599 63.5871 59.7978 63.3715 63.6719 62.3509C64.9453 62.1775 66.1435 61.752 67.1575 61.1129C68.1709 60.4742 68.9672 59.6422 69.4749 58.6931C69.8064 57.7371 69.8331 56.7291 69.5509 55.762C69.2689 54.7945 68.687 53.8992 67.8598 53.1572C65.1218 50.3943 61.7297 48.0893 57.8777 46.3749C54.605 44.9902 51.2012 43.8136 47.6978 42.8568C46.6335 42.5378 45.5149 42.2024 44.3384 41.8475L44.5821 41.7692C45.4576 41.4325 46.3792 41.1764 47.328 41.0064Z" fill="#262626"/>
</svg>
