<svg width="24" height="24" viewBox="0 0 24 24" fill="none" xmlns="http://www.w3.org/2000/svg">
<path d="M12.1309 13.8467C12.1554 13.8467 12.179 13.8558 12.1973 13.8721L15.3408 17.0146C15.6731 17.3481 16.068 17.6128 16.5029 17.793C16.7048 17.8766 16.9143 17.9392 17.127 17.9844L13.9004 21.2129C12.8507 22.2622 11.1473 22.2623 10.0977 21.2129L6.91895 18.0342C7.20254 17.991 7.4808 17.9149 7.74707 17.8047C8.18231 17.6245 8.57779 17.3602 8.91016 17.0264L8.90918 17.0254L12.0625 13.874C12.081 13.8564 12.1053 13.8468 12.1309 13.8467ZM11.999 2C12.7121 2 13.3959 2.28321 13.9004 2.78711L17.126 6.0127C16.9137 6.05791 16.7054 6.12258 16.5039 6.20605C16.0694 6.38611 15.6747 6.6502 15.3428 6.9834L12.1924 10.1338C12.1845 10.1417 12.1744 10.1481 12.1641 10.1523C12.1538 10.1565 12.1429 10.1592 12.1318 10.1592C12.1208 10.1592 12.1098 10.1566 12.0996 10.1523L12.0713 10.1338L8.90918 6.97168C8.36361 6.42616 7.67136 6.07697 6.9209 5.96289L10.0977 2.78711C10.6021 2.28316 11.286 2.00004 11.999 2Z" stroke="#16A34A"/>
<path d="M6.37402 7.84766L6.53809 7.85645C6.86419 7.88947 7.17391 8.01723 7.42773 8.22461L7.5498 8.33496L10.71 11.4961V11.4971C10.8965 11.6845 11.1182 11.833 11.3623 11.9346C11.4303 11.9628 11.5 11.9863 11.5703 12.0068C11.2536 12.0971 10.9603 12.2632 10.7178 12.4941L10.709 12.5029L7.54883 15.666C7.24089 15.974 6.8128 16.1514 6.375 16.1514H5.03613L2.78809 13.9033C1.73833 12.852 1.73876 11.1482 2.78809 10.0986L5.03809 7.84766H6.37402ZM17.877 7.86133H18.9746L21.2119 10.0986C22.2616 11.1483 22.2615 12.8516 21.2119 13.9014L18.9766 16.1377H17.877C17.4405 16.1376 17.0119 15.9602 16.7061 15.6533L16.7051 15.6523L13.5557 12.502L13.5469 12.4941L13.3975 12.3652C13.1876 12.2007 12.9486 12.0793 12.6943 12.0068C12.7651 11.9862 12.835 11.963 12.9033 11.9346C13.1476 11.833 13.3691 11.6836 13.5557 11.4961L16.7051 8.34766H16.7061C17.0125 8.04003 17.4413 7.8614 17.877 7.86133Z" stroke="#16A34A"/>
</svg>
