<svg width="114" height="48" viewBox="0 0 114 48" fill="none" xmlns="http://www.w3.org/2000/svg">
<g clip-path="url(#clip0_2659_9511)">
<path d="M48.7375 25.6501C48.7375 30.9734 44.5732 34.896 39.4625 34.896C34.3519 34.896 30.1875 30.9734 30.1875 25.6501C30.1875 20.2894 34.3519 16.4043 39.4625 16.4043C44.5732 16.4043 48.7375 20.2894 48.7375 25.6501ZM44.6774 25.6501C44.6774 22.3236 42.2638 20.0476 39.4625 20.0476C36.6613 20.0476 34.2477 22.3236 34.2477 25.6501C34.2477 28.9433 36.6613 31.2527 39.4625 31.2527C42.2638 31.2527 44.6774 28.9391 44.6774 25.6501Z" fill="#EA4335"/>
<path d="M68.7473 25.6501C68.7473 30.9734 64.5829 34.896 59.4723 34.896C54.3616 34.896 50.1973 30.9734 50.1973 25.6501C50.1973 20.2936 54.3616 16.4043 59.4723 16.4043C64.5829 16.4043 68.7473 20.2894 68.7473 25.6501ZM64.6871 25.6501C64.6871 22.3236 62.2736 20.0476 59.4723 20.0476C56.671 20.0476 54.2574 22.3236 54.2574 25.6501C54.2574 28.9433 56.671 31.2527 59.4723 31.2527C62.2736 31.2527 64.6871 28.9391 64.6871 25.6501Z" fill="#FBBC05"/>
<path d="M87.9219 16.9629V33.562C87.9219 40.3901 83.8951 43.1789 79.1346 43.1789C74.6534 43.1789 71.9564 40.1817 70.9393 37.7306L74.4742 36.2591C75.1037 37.7639 76.646 39.5397 79.1305 39.5397C82.1777 39.5397 84.066 37.6597 84.066 34.1206V32.7909H83.9243C83.0156 33.9122 81.2648 34.8918 79.0554 34.8918C74.4325 34.8918 70.1973 30.865 70.1973 25.6835C70.1973 20.4645 74.4325 16.4043 79.0554 16.4043C81.2606 16.4043 83.0114 17.3839 83.9243 18.4719H84.066V16.9671H87.9219V16.9629ZM84.3537 25.6835C84.3537 22.4278 82.1818 20.0476 79.4181 20.0476C76.6168 20.0476 74.2699 22.4278 74.2699 25.6835C74.2699 28.9058 76.6168 31.2527 79.4181 31.2527C82.1818 31.2527 84.3537 28.9058 84.3537 25.6835Z" fill="#4285F4"/>
<path d="M94.2795 7.2334V34.329H90.3193V7.2334H94.2795Z" fill="#34A853"/>
<path d="M109.711 28.6934L112.863 30.7944C111.846 32.2992 109.395 34.8921 105.159 34.8921C99.907 34.8921 95.9844 30.8319 95.9844 25.6462C95.9844 20.1479 99.9403 16.4004 104.705 16.4004C109.503 16.4004 111.85 20.2188 112.617 22.2822L113.038 23.3327L100.678 28.4517C101.624 30.3067 103.096 31.2529 105.159 31.2529C107.227 31.2529 108.661 30.2358 109.711 28.6934ZM100.011 25.3669L108.273 21.9362C107.819 20.7815 106.452 19.977 104.843 19.977C102.779 19.977 99.907 21.7987 100.011 25.3669Z" fill="#EA4335"/>
<path d="M15.1975 23.2447V19.3221H28.4159C28.5451 20.0058 28.6118 20.8145 28.6118 21.6899C28.6118 24.6329 27.8073 28.272 25.2145 30.8648C22.6925 33.491 19.4702 34.8917 15.2016 34.8917C7.28972 34.8917 0.636719 28.4471 0.636719 20.5352C0.636719 12.6233 7.28972 6.17871 15.2016 6.17871C19.5786 6.17871 22.6967 7.89615 25.0394 10.1347L22.2715 12.9026C20.5916 11.3269 18.3155 10.1013 15.1975 10.1013C9.41985 10.1013 4.90114 14.7576 4.90114 20.5352C4.90114 26.3128 9.41985 30.9691 15.1975 30.9691C18.945 30.9691 21.0793 29.4642 22.4466 28.0969C23.5554 26.9881 24.2849 25.4041 24.5725 23.2406L15.1975 23.2447Z" fill="#4285F4"/>
</g>
<defs>
<clipPath id="clip0_2659_9511">
<rect width="113" height="48" fill="white" transform="translate(0.5)"/>
</clipPath>
</defs>
</svg>
