<svg width="165" height="48" viewBox="0 0 165 48" fill="none" xmlns="http://www.w3.org/2000/svg">
<g clip-path="url(#clip0_2659_9484)">
<path d="M164.358 21.8339V18.9522H160.779V14.4722L160.659 14.5093L157.298 15.5377L157.231 15.5579V18.9523H151.926V17.0613C151.926 16.1808 152.123 15.507 152.511 15.0576C152.896 14.6136 153.448 14.3879 154.15 14.3879C154.656 14.3879 155.179 14.507 155.706 14.7417L155.838 14.8007V11.7659L155.776 11.743C155.284 11.5665 154.616 11.4775 153.788 11.4775C152.744 11.4775 151.796 11.7047 150.969 12.1548C150.141 12.6056 149.49 13.2492 149.034 14.0674C148.58 14.8847 148.349 15.8286 148.349 16.8732V18.9522H145.857V21.8339H148.349V33.9739H151.926V21.8339H157.231V29.5486C157.231 32.726 158.73 34.3361 161.686 34.3361C162.171 34.3361 162.683 34.2792 163.204 34.1677C163.736 34.0533 164.098 33.939 164.311 33.817L164.358 33.7891V30.8807L164.212 30.977C164.018 31.1063 163.776 31.212 163.493 31.2907C163.208 31.3707 162.971 31.4108 162.786 31.4108C162.094 31.4108 161.582 31.2242 161.264 30.856C160.942 30.4845 160.779 29.8348 160.779 28.9259V21.8339H164.358ZM137.869 31.4113C136.571 31.4113 135.547 30.9808 134.826 30.1327C134.1 29.2804 133.732 28.0653 133.732 26.5214C133.732 24.9286 134.1 23.6819 134.826 22.8146C135.548 21.9529 136.562 21.5156 137.84 21.5156C139.08 21.5156 140.068 21.9332 140.775 22.7577C141.486 23.5863 141.846 24.823 141.846 26.4344C141.846 28.0656 141.507 29.3186 140.838 30.1568C140.174 30.9887 139.175 31.4113 137.869 31.4113ZM138.028 18.5903C135.551 18.5903 133.584 19.3161 132.181 20.7476C130.779 22.1793 130.068 24.1605 130.068 26.6367C130.068 28.9886 130.762 30.8804 132.131 32.2587C133.499 33.6374 135.362 34.3358 137.666 34.3358C140.067 34.3358 141.995 33.5998 143.397 32.1485C144.799 30.6988 145.51 28.7363 145.51 26.3179C145.51 23.9292 144.843 22.0233 143.528 20.6542C142.212 19.2846 140.362 18.5903 138.028 18.5903ZM124.301 18.5903C122.616 18.5903 121.222 19.0213 120.158 19.8711C119.086 20.7259 118.543 21.847 118.543 23.2037C118.543 23.9089 118.66 24.5353 118.891 25.0667C119.123 25.5997 119.483 26.0691 119.96 26.463C120.434 26.8537 121.165 27.2629 122.134 27.6793C122.949 28.0146 123.557 28.2982 123.943 28.5217C124.32 28.7407 124.588 28.9609 124.739 29.1754C124.886 29.3852 124.96 29.6724 124.96 30.0269C124.96 31.0361 124.204 31.5271 122.649 31.5271C122.072 31.5271 121.415 31.4067 120.694 31.1692C119.978 30.9354 119.303 30.5929 118.691 30.1538L118.543 30.0473V33.4912L118.597 33.5166C119.103 33.7502 119.741 33.9473 120.494 34.1023C121.244 34.2575 121.926 34.3364 122.519 34.3364C124.347 34.3364 125.82 33.9034 126.894 33.0485C127.975 32.1878 128.523 31.0402 128.523 29.6366C128.523 28.6241 128.228 27.7558 127.647 27.0555C127.069 26.3609 126.067 25.7232 124.669 25.1595C123.555 24.7125 122.842 24.3415 122.548 24.0566C122.264 23.7815 122.12 23.3923 122.12 22.8995C122.12 22.4627 122.298 22.1127 122.663 21.8293C123.031 21.5444 123.543 21.3996 124.185 21.3996C124.781 21.3996 125.391 21.4937 125.997 21.6782C126.603 21.8627 127.136 22.1098 127.58 22.4121L127.726 22.512V19.2451L127.67 19.221C127.26 19.0452 126.719 18.8948 126.063 18.7727C125.409 18.6515 124.817 18.5903 124.301 18.5903ZM109.218 31.4113C107.92 31.4113 106.896 30.9808 106.175 30.1327C105.449 29.2804 105.081 28.0656 105.081 26.5214C105.081 24.9286 105.449 23.6819 106.175 22.8146C106.897 21.9529 107.91 21.5156 109.189 21.5156C110.429 21.5156 111.416 21.9332 112.124 22.7577C112.835 23.5863 113.195 24.823 113.195 26.4344C113.195 28.0656 112.856 29.3186 112.187 30.1568C111.523 30.9887 110.524 31.4113 109.218 31.4113ZM109.377 18.5903C106.9 18.5903 104.932 19.3161 103.53 20.7476C102.128 22.1793 101.417 24.1605 101.417 26.6367C101.417 28.9896 102.111 30.8804 103.48 32.2587C104.848 33.6374 106.711 34.3358 109.015 34.3358C111.416 34.3358 113.344 33.5998 114.747 32.1485C116.148 30.6988 116.859 28.7363 116.859 26.3179C116.859 23.9292 116.192 22.0233 114.877 20.6542C113.561 19.2846 111.71 18.5903 109.377 18.5903ZM95.987 21.5536V18.9522H92.4536V33.9736H95.987V26.2895C95.987 24.983 96.2833 23.9095 96.8679 23.0988C97.445 22.2977 98.2141 21.8917 99.1531 21.8917C99.4714 21.8917 99.8287 21.9442 100.216 22.048C100.599 22.1512 100.876 22.2633 101.04 22.3812L101.188 22.4888V18.9265L101.131 18.9019C100.802 18.7621 100.336 18.6916 99.7472 18.6916C98.8592 18.6916 98.0646 18.9769 97.384 19.5387C96.7866 20.0324 96.3548 20.7094 96.0246 21.5536H95.987ZM86.1258 18.5903C84.5047 18.5903 83.0588 18.9379 81.8289 19.6231C80.5965 20.31 79.6434 21.2905 78.9949 22.5373C78.3493 23.7811 78.0215 25.234 78.0215 26.8543C78.0215 28.2736 78.3393 29.5761 78.9675 30.724C79.596 31.8738 80.4855 32.7733 81.6116 33.3972C82.7361 34.0203 84.0357 34.3362 85.4746 34.3362C87.1538 34.3362 88.5876 34.0005 89.7371 33.3384L89.7835 33.3118V30.0746L89.635 30.183C89.1143 30.5623 88.5324 30.8651 87.9063 31.0832C87.2818 31.3011 86.7124 31.4113 86.2131 31.4113C84.8266 31.4113 83.7136 30.9774 82.9057 30.1221C82.096 29.2657 81.6855 28.0631 81.6855 26.5498C81.6855 25.027 82.1136 23.7935 82.9573 22.8834C83.7985 21.9759 84.9136 21.5156 86.2714 21.5156C87.4328 21.5156 88.5646 21.9088 89.6353 22.6855L89.7835 22.7932V19.3822L89.7356 19.3553C89.3327 19.1297 88.7832 18.9435 88.1009 18.8022C87.4216 18.6613 86.7571 18.5903 86.1258 18.5903ZM75.588 18.9523H72.0545V33.9736H75.588V18.9523ZM73.8574 12.5532C73.2758 12.5532 72.7686 12.7512 72.3518 13.1435C71.9334 13.5369 71.7211 14.0322 71.7211 14.6168C71.7211 15.1922 71.9308 15.6785 72.3453 16.0615C72.7571 16.4433 73.266 16.6368 73.8575 16.6368C74.4489 16.6368 74.9596 16.4433 75.3763 16.0621C75.7958 15.6785 76.0085 15.1923 76.0085 14.6168C76.0085 14.0527 75.8015 13.5624 75.3936 13.1593C74.9861 12.757 74.469 12.5532 73.8574 12.5532ZM65.0411 17.844V33.9736H68.6472V13.013H63.6562L57.3124 28.5819L51.1561 13.013H45.9619V33.9734H49.3507V17.8425H49.467L55.9679 33.9736H58.5253L64.9248 17.844H65.0411Z" fill="white"/>
<path d="M17.1225 22.6313H0.5V6.00879H17.1225V22.6313Z" fill="#F1511B"/>
<path d="M35.4757 22.6313H18.8535V6.00879H35.4757V22.6313Z" fill="#80CC28"/>
<path d="M17.122 40.991H0.5V24.3687H17.122V40.991Z" fill="#00ADEF"/>
<path d="M35.4757 40.991H18.8535V24.3687H35.4757V40.991Z" fill="#FBBC09"/>
</g>
<defs>
<clipPath id="clip0_2659_9484">
<rect width="164" height="48" fill="white" transform="translate(0.5)"/>
</clipPath>
</defs>
</svg>
