<svg width="128" height="48" viewBox="0 0 128 48" fill="none" xmlns="http://www.w3.org/2000/svg">
<g clip-path="url(#clip0_2659_9521)">
<path d="M27.6506 11.884C27.6253 11.707 27.4736 11.6059 27.3472 11.6059C27.2208 11.6059 24.7181 11.5554 24.7181 11.5554C24.7181 11.5554 22.6199 9.53297 22.4177 9.30545C22.2154 9.10321 21.8109 9.15377 21.6593 9.20433C21.6593 9.20433 21.2548 9.33073 20.5975 9.53297C20.4964 9.17905 20.3194 8.74929 20.0919 8.29426C19.3588 6.87858 18.2465 6.12019 16.9319 6.12019C16.8308 6.12019 16.755 6.12019 16.6538 6.14547C16.6033 6.09491 16.578 6.04435 16.5274 6.01907C15.946 5.41235 15.2129 5.10899 14.3281 5.13427C12.6343 5.18483 10.9406 6.42355 9.55019 8.59762C8.58956 10.1397 7.85644 12.061 7.62892 13.5525C5.68237 14.1592 4.31726 14.5889 4.2667 14.5889C3.28079 14.8923 3.25551 14.9176 3.12911 15.8529C3.07855 16.5608 0.5 36.5066 0.5 36.5066L22.1396 40.248L31.5184 37.9223C31.4931 37.9223 27.6759 12.061 27.6506 11.884ZM19.5105 9.88689C19.0049 10.0386 18.4487 10.2155 17.842 10.4178C17.842 9.55825 17.7156 8.34482 17.3364 7.33362C18.6257 7.53586 19.2577 9.00209 19.5105 9.88689ZM16.7044 10.7464C15.5668 11.1003 14.3281 11.4795 13.0894 11.8587C13.4433 10.5189 14.1006 9.20433 14.9095 8.31954C15.2129 7.9909 15.6426 7.63698 16.123 7.43474C16.6286 8.42066 16.7297 9.81105 16.7044 10.7464ZM14.3787 6.27187C14.7831 6.27187 15.1118 6.34771 15.3898 6.54995C14.9348 6.77746 14.4798 7.13138 14.0753 7.58642C12.9883 8.74929 12.154 10.5442 11.8254 12.2885C10.7889 12.6171 9.77771 12.9205 8.86764 13.1986C9.47435 10.443 11.7748 6.34771 14.3787 6.27187Z" fill="#95BF47"/>
<path d="M27.3473 11.6061C27.2209 11.6061 24.7182 11.5555 24.7182 11.5555C24.7182 11.5555 22.62 9.53312 22.4177 9.3056C22.3419 9.22976 22.2408 9.1792 22.1396 9.1792V40.2482L31.5185 37.9224C31.5185 37.9224 27.7012 12.0611 27.6759 11.8841C27.6254 11.7072 27.4737 11.6061 27.3473 11.6061Z" fill="#5E8E3E"/>
<path d="M16.9328 16.4337L15.8457 20.5038C15.8457 20.5038 14.6323 19.9476 13.1913 20.0487C11.0678 20.1751 11.0678 21.515 11.0678 21.8436C11.1942 23.6637 15.9721 24.0682 16.2502 28.3405C16.4524 31.7027 14.4806 34.0032 11.5987 34.1802C8.16064 34.3571 6.26465 32.3347 6.26465 32.3347L6.99777 29.2253C6.99777 29.2253 8.91904 30.6663 10.4358 30.5652C11.4217 30.5146 11.8009 29.6804 11.7504 29.1242C11.5987 26.7479 7.7056 26.8996 7.4528 22.9812C7.25056 19.6948 9.39935 16.3831 14.152 16.0798C15.9974 15.9534 16.9328 16.4337 16.9328 16.4337Z" fill="white"/>
<path d="M44.2092 25.1052C43.1221 24.5238 42.566 24.0182 42.566 23.3356C42.566 22.4761 43.3496 21.9199 44.5631 21.9199C45.9788 21.9199 47.2427 22.5014 47.2427 22.5014L48.2287 19.4678C48.2287 19.4678 47.3186 18.76 44.6389 18.76C40.8975 18.76 38.2937 20.9088 38.2937 23.9171C38.2937 25.6361 39.5071 26.9254 41.125 27.8607C42.4396 28.5938 42.8946 29.1247 42.8946 29.9084C42.8946 30.7173 42.2373 31.3746 41.0239 31.3746C39.229 31.3746 37.51 30.4393 37.51 30.4393L36.4482 33.4728C36.4482 33.4728 38.0156 34.5346 40.67 34.5346C44.5125 34.5346 47.2933 32.6386 47.2933 29.2258C47.268 27.3804 45.8776 26.0658 44.2092 25.1052Z" fill="white"/>
<path d="M59.5288 18.7096C57.6329 18.7096 56.1413 19.6197 55.0038 20.9848L54.9532 20.9595L56.5964 12.3644H52.3241L48.1529 34.2567H52.4252L53.8409 26.7739C54.397 23.9426 55.8633 22.1982 57.2284 22.1982C58.189 22.1982 58.5682 22.8555 58.5682 23.7909C58.5682 24.3723 58.5177 25.1054 58.3913 25.6869L56.7733 34.2567H61.0456L62.7141 25.4088C62.8911 24.4734 63.0175 23.3611 63.0175 22.6027C63.0428 20.1759 61.7788 18.7096 59.5288 18.7096Z" fill="white"/>
<path d="M72.7246 18.7093C67.5675 18.7093 64.1547 23.3607 64.1547 28.5431C64.1547 31.8548 66.2024 34.5344 70.0449 34.5344C75.1009 34.5344 78.5137 30.0094 78.5137 24.7006C78.539 21.6417 76.7441 18.7093 72.7246 18.7093ZM70.6263 31.2733C69.1601 31.2733 68.5534 30.0346 68.5534 28.4673C68.5534 26.0151 69.8174 22.0209 72.1431 22.0209C73.6599 22.0209 74.1655 23.3355 74.1655 24.5995C74.1655 27.2286 72.8763 31.2733 70.6263 31.2733Z" fill="white"/>
<path d="M89.4857 18.7093C86.6038 18.7093 84.9606 21.2625 84.9606 21.2625H84.9101L85.1629 18.962H81.3709C81.1939 20.5041 80.84 22.8804 80.5114 24.65L77.5283 40.3235H81.8006L82.9888 33.9783H83.0899C83.0899 33.9783 83.9747 34.5345 85.5926 34.5345C90.6233 34.5345 93.9097 29.3774 93.9097 24.1697C93.9097 21.2878 92.6204 18.7093 89.4857 18.7093ZM85.3904 31.3239C84.2781 31.3239 83.6208 30.6919 83.6208 30.6919L84.3286 26.6977C84.8342 24.018 86.2246 22.2484 87.7161 22.2484C89.0307 22.2484 89.4352 23.4619 89.4352 24.5995C89.4352 27.3802 87.792 31.3239 85.3904 31.3239Z" fill="white"/>
<path d="M100.027 12.5665C98.6616 12.5665 97.5745 13.6536 97.5745 15.044C97.5745 16.3079 98.3835 17.1927 99.5969 17.1927H99.6475C100.987 17.1927 102.125 16.2827 102.15 14.7153C102.15 13.4766 101.316 12.5665 100.027 12.5665Z" fill="white"/>
<path d="M94.0356 34.2312H98.3079L101.215 19.0633H96.9175L94.0356 34.2312Z" fill="white"/>
<path d="M112.11 19.0383H109.127L109.279 18.3304C109.532 16.8642 110.391 15.5749 111.832 15.5749C112.591 15.5749 113.198 15.8025 113.198 15.8025L114.032 12.4402C114.032 12.4402 113.299 12.061 111.706 12.061C110.189 12.061 108.672 12.4908 107.51 13.4767C106.043 14.7154 105.361 16.5103 105.032 18.3304L104.906 19.0383H102.909L102.277 22.2741H104.274L101.999 34.2568H106.271L108.546 22.2741H111.504L112.11 19.0383Z" fill="white"/>
<path d="M122.424 19.0633C122.424 19.0633 119.745 25.813 118.557 29.5039H118.506C118.43 28.3157 117.444 19.0633 117.444 19.0633H112.944L115.523 32.9925C115.574 33.2959 115.548 33.4981 115.422 33.7004C114.916 34.661 114.082 35.5963 113.096 36.2789C112.287 36.8603 111.377 37.2395 110.669 37.4923L111.857 41.1326C112.717 40.9557 114.537 40.2226 116.054 38.8069C118 36.9867 119.821 34.1554 121.666 30.3129L126.899 19.0633H122.424Z" fill="white"/>
</g>
<defs>
<clipPath id="clip0_2659_9521">
<rect width="127" height="48" fill="white" transform="translate(0.5)"/>
</clipPath>
</defs>
</svg>
